<?xml version="1.0" standalone="no"?>
<!DOCTYPE svg PUBLIC "-//W3C//DTD SVG 20010904//EN"
 "http://www.w3.org/TR/2001/REC-SVG-20010904/DTD/svg10.dtd">
<svg version="1.0" xmlns="http://www.w3.org/2000/svg"
 width="1534.000000pt" height="1534.000000pt" viewBox="0 0 1534.000000 1534.000000"
 preserveAspectRatio="xMidYMid meet">

<g transform="translate(0.000000,1534.000000) scale(0.100000,-0.100000)"
fill="#000000" stroke="none">
<path d="M8043 14890 c-60 -21 -93 -42 -176 -114 -32 -27 -66 -50 -75 -51
-120 -12 -236 -61 -502 -215 l-140 -81 -60 21 c-68 24 -111 21 -149 -9 -52
-41 -170 -120 -183 -122 -7 -2 -48 1 -91 5 -69 7 -86 5 -140 -15 -67 -25 -140
-91 -152 -136 -9 -39 -1 -37 31 10 18 25 50 52 80 67 51 26 85 29 230 20 80
-6 90 -1 214 104 35 30 74 56 87 59 13 2 53 -4 90 -14 38 -11 72 -17 78 -15 5
3 4 5 -4 5 -11 1 -11 4 -1 16 7 8 17 15 22 15 10 0 45 16 246 112 68 32 127
58 131 58 4 0 25 8 47 19 21 10 64 24 94 31 115 25 125 30 195 95 112 104 221
149 290 120 18 -7 18 -6 5 8 -24 25 -107 28 -167 7z"/>
<path d="M8690 14839 c-30 -11 -60 -21 -67 -22 -7 -2 -16 -7 -20 -11 -4 -5 6
-6 22 -2 113 23 143 27 189 21 62 -9 100 -34 126 -86 23 -45 52 -63 87 -54 35
8 181 -13 229 -35 23 -10 60 -35 83 -55 22 -21 41 -33 41 -28 0 18 -80 102
-103 109 -12 4 -24 10 -27 13 -11 16 -167 50 -200 45 -33 -5 -37 -3 -67 40
-18 25 -50 54 -72 66 -53 26 -147 26 -221 -1z"/>
<path d="M7854 14675 c-96 -30 -221 -97 -319 -169 -98 -73 -385 -324 -385
-337 0 -6 35 17 78 49 235 178 313 234 372 267 203 115 297 155 365 155 38 0
47 -5 91 -52 61 -65 100 -126 88 -138 -5 -5 -27 -16 -49 -24 -37 -13 -38 -15
-12 -15 39 -1 97 25 97 44 0 31 -49 111 -107 174 -53 58 -62 63 -103 66 -26 2
-74 -7 -116 -20z"/>
<path d="M9539 14436 c-56 -14 -90 -35 -125 -81 -36 -48 -24 -55 19 -11 19 19
52 39 73 45 48 14 148 14 172 1 9 -5 44 -21 77 -36 69 -31 250 -138 281 -165
11 -11 27 -19 35 -19 18 0 -44 55 -146 131 -44 32 -85 63 -91 68 -26 21 -123
60 -164 66 -25 4 -54 8 -65 9 -11 2 -41 -2 -66 -8z"/>
<path d="M8370 14397 c0 -9 -12 -14 -30 -15 -16 0 -37 -5 -47 -11 -13 -7 2 -9
52 -5 112 7 157 20 119 35 -33 13 -94 10 -94 -4z"/>
<path d="M7652 14357 c-39 -41 -56 -117 -27 -117 18 0 85 41 104 64 14 17 2
23 -14 7 -17 -16 -85 -51 -85 -43 0 4 12 29 25 57 13 27 23 50 21 52 -1 2 -12
-7 -24 -20z"/>
<path d="M8611 14204 c-14 -7 -64 -13 -115 -13 -114 0 -207 -8 -218 -19 -5 -5
74 -9 174 -10 191 -1 278 10 278 36 0 11 -10 13 -45 10 -24 -3 -45 -2 -47 1
-2 4 -14 2 -27 -5z"/>
<path d="M9962 14153 c-62 -40 -57 -61 6 -23 42 26 54 25 91 -6 36 -30 42 -17
9 20 -35 38 -58 40 -106 9z"/>
<path d="M6165 14130 c-72 -9 -129 -29 -201 -71 -65 -37 -154 -106 -154 -119
0 -5 51 17 113 50 179 93 299 122 393 94 26 -8 54 -14 63 -13 18 0 -65 43
-102 53 -14 3 -31 8 -39 10 -7 2 -40 0 -73 -4z"/>
<path d="M10213 14112 c-29 -8 -53 -19 -53 -23 0 -8 26 -6 65 6 6 1 51 -4 100
-12 50 -8 108 -16 130 -19 22 -4 44 -10 50 -15 5 -5 20 -9 33 -9 13 0 33 -5
44 -11 16 -8 34 -7 77 6 31 10 60 21 64 25 10 9 -59 6 -91 -4 -13 -4 -28 -3
-35 2 -7 5 -50 21 -97 36 -104 31 -214 39 -287 18z"/>
<path d="M6160 14041 c-46 -9 -77 -27 -90 -51 -16 -30 -12 -35 13 -13 21 20
82 44 122 49 11 1 25 3 30 4 6 1 1 5 -10 10 -23 10 -19 10 -65 1z"/>
<path d="M6300 13993 c-20 -45 -60 -192 -60 -220 0 -64 70 120 84 220 4 26 5
47 2 47 -3 0 -15 -21 -26 -47z"/>
<path d="M9355 14020 c-27 -5 -68 -15 -90 -24 l-40 -16 55 7 c107 13 292 6
375 -15 44 -11 89 -24 100 -28 14 -5 17 -4 10 4 -6 6 -48 25 -95 42 -92 33
-217 45 -315 30z"/>
<path d="M10136 13923 c114 -145 231 -261 177 -175 -69 108 -215 272 -243 272
-6 0 24 -44 66 -97z"/>
<path d="M10182 13995 c9 -9 70 -23 148 -34 36 -5 89 -19 118 -31 45 -19 55
-29 77 -75 17 -37 27 -79 31 -139 4 -47 10 -86 15 -86 4 0 11 25 15 56 l6 55
57 -6 c128 -14 131 -15 161 -56 15 -22 36 -62 47 -91 13 -38 25 -53 44 -60 33
-11 40 -36 32 -108 -7 -64 7 -60 30 8 19 56 4 132 -30 147 -12 5 -29 28 -39
54 -9 24 -32 61 -51 82 -52 57 -91 65 -225 44 -25 -4 -28 -1 -28 23 0 47 -29
125 -58 155 -45 48 -85 59 -227 64 -71 3 -127 2 -123 -2z"/>
<path d="M10667 13973 c-6 -10 43 -123 53 -123 10 0 -7 65 -26 103 -15 28 -20
32 -27 20z"/>
<path d="M7175 13939 c-10 -15 1 -23 20 -15 9 3 13 10 10 16 -8 13 -22 13 -30
-1z"/>
<path d="M9646 13902 c-3 -6 -1 -14 5 -17 15 -10 25 3 12 16 -7 7 -13 7 -17 1z"/>
<path d="M9575 13872 c5 -19 90 -180 101 -191 2 -2 6 -2 10 1 7 8 -63 147 -92
183 -22 26 -25 27 -19 7z"/>
<path d="M5847 13866 c-83 -30 -173 -120 -211 -210 -26 -63 -18 -73 15 -20 59
93 130 152 226 185 l55 20 41 -27 c40 -26 129 -121 232 -247 26 -32 49 -56 52
-53 11 10 -154 243 -215 304 -59 59 -65 62 -110 62 -26 -1 -64 -7 -85 -14z"/>
<path d="M6700 13710 c0 -5 11 -10 24 -10 33 0 210 -41 216 -50 3 -4 19 -12
36 -17 17 -6 54 -27 83 -47 73 -52 85 -43 21 15 -62 57 -114 87 -180 106 -55
15 -200 17 -200 3z"/>
<path d="M6715 13600 c3 -5 25 -15 48 -21 23 -7 47 -16 52 -19 6 -4 33 -10 60
-14 68 -9 43 7 -61 39 -87 27 -109 30 -99 15z"/>
<path d="M5768 13581 c-84 -9 -82 -21 3 -22 41 0 93 -1 117 -2 42 -2 57 8 25
16 -39 11 -91 14 -145 8z"/>
<path d="M5767 13493 c-37 -10 -71 -143 -88 -349 -7 -83 -9 -168 -4 -209 l8
-70 9 40 c5 22 7 51 5 64 -3 12 1 62 8 110 7 47 21 140 30 206 23 161 22 157
38 179 14 19 16 19 41 3 14 -10 26 -15 26 -13 0 8 -43 46 -49 45 -3 -1 -14 -3
-24 -6z"/>
<path d="M5510 13326 c-80 -47 -161 -121 -186 -169 -19 -35 -45 -119 -39 -125
2 -2 18 21 35 51 34 61 102 133 203 214 37 31 67 59 67 64 0 13 3 14 -80 -35z"/>
<path d="M5882 13280 c-30 -63 -31 -64 -41 -38 -16 43 -31 44 -31 1 0 -44 19
-87 40 -91 17 -3 40 40 40 74 0 12 7 38 16 59 27 66 8 62 -24 -5z"/>
<path d="M10741 13223 c-21 -4 -16 -8 27 -22 60 -21 128 -65 150 -99 14 -22
14 -25 -1 -34 -24 -13 -21 -31 3 -23 14 4 20 2 21 -9 3 -29 4 -34 10 -41 4 -3
10 10 13 30 8 41 12 42 54 12 90 -67 126 -176 85 -262 -19 -39 -11 -59 12 -29
44 59 55 122 34 197 -18 67 -81 119 -184 152 -16 5 -17 8 -5 15 8 5 12 11 10
13 -58 44 -122 82 -159 93 -25 7 -46 13 -46 13 0 -1 -11 -4 -24 -6z"/>
<path d="M10750 13038 c0 -17 43 -82 109 -165 41 -52 52 -74 66 -140 9 -43 31
-121 47 -173 22 -69 31 -121 34 -188 3 -57 12 -116 24 -153 31 -92 43 -235 29
-349 -4 -36 -11 -135 -14 -220 -4 -85 -11 -159 -16 -165 -5 -5 -9 2 -9 20 0
15 -3 26 -6 22 -6 -6 -11 -265 -13 -717 -1 -151 -7 -332 -13 -403 -8 -89 -9
-130 -1 -138 7 -7 14 7 22 48 6 32 16 65 21 73 13 20 12 7 -4 -75 -39 -188
-66 -553 -45 -587 5 -7 9 -10 9 -6 0 4 9 59 20 124 55 331 103 924 54 676 -18
-88 -16 -16 1 107 9 58 22 129 29 156 42 151 51 275 32 420 -14 110 -17 140
-22 261 -5 94 -2 171 11 275 12 100 15 170 10 234 -4 49 -8 99 -8 110 0 21
-18 108 -37 185 -7 25 -13 74 -15 110 -4 75 -6 82 -35 181 -13 41 -30 106 -40
144 -23 96 -52 147 -117 213 -31 32 -71 74 -90 95 -18 22 -33 33 -33 25z"/>
<path d="M10830 13010 c-12 -8 -10 -10 8 -10 15 0 48 -23 90 -63 134 -127 177
-145 75 -31 -37 42 -85 85 -105 95 -42 22 -47 22 -68 9z"/>
<path d="M5405 12849 c-27 -11 -63 -26 -80 -33 -16 -8 -40 -17 -52 -20 -33
-10 -83 -73 -83 -104 0 -23 28 -175 47 -252 13 -54 20 49 10 154 -12 123 -4
145 66 177 44 21 140 78 153 92 12 12 -7 7 -61 -14z"/>
<path d="M6020 12672 c0 -4 -37 -34 -82 -67 -46 -33 -122 -98 -169 -145 -99
-100 -147 -186 -203 -366 -29 -96 -169 -439 -183 -454 -3 -3 -2 29 2 70 11
116 -3 78 -29 -83 -14 -80 -34 -177 -45 -214 -17 -59 -61 -252 -61 -268 0 -4
5 -3 10 0 6 3 15 26 21 51 14 54 35 73 26 23 -3 -19 -13 -108 -22 -199 -9 -91
-29 -284 -45 -430 -57 -507 -70 -673 -51 -684 6 -4 11 0 12 11 0 10 4 41 9 68
26 146 51 311 60 395 36 329 70 694 75 809 5 94 26 262 35 280 5 9 18 43 29
76 18 54 37 105 60 160 5 11 25 61 46 110 20 50 40 99 45 110 38 86 50 115 50
125 0 5 4 18 10 28 5 9 17 44 26 77 16 56 23 65 111 140 110 94 232 215 217
215 -14 0 -146 -99 -201 -150 -23 -23 -43 -37 -43 -31 0 27 265 311 291 311 3
0 11 -18 17 -41 13 -52 48 -103 81 -116 26 -10 99 -24 221 -43 36 -5 153 -12
260 -15 107 -3 203 -8 213 -11 9 -3 17 -1 17 5 0 5 -12 12 -27 15 -33 7 -477
62 -580 72 -95 9 -124 28 -163 108 -31 63 -40 76 -40 58z"/>
<path d="M9710 12633 c-47 -8 -123 -36 -216 -79 -51 -24 -123 -52 -159 -63
-88 -28 -113 -42 -60 -36 113 13 173 30 327 92 90 37 97 38 213 37 145 -1 162
-8 371 -147 76 -50 181 -118 232 -150 83 -53 92 -62 93 -90 3 -86 9 -156 15
-197 5 -25 9 -49 9 -55 4 -33 21 -116 46 -229 16 -70 31 -138 33 -150 20 -106
72 -343 96 -436 26 -101 125 -408 136 -419 14 -15 12 17 -6 85 -12 44 -23 86
-25 94 -2 8 -17 72 -35 143 -17 70 -33 139 -36 155 -3 15 -9 41 -14 57 -5 17
-12 53 -16 80 -3 28 -15 91 -26 140 -11 50 -22 101 -24 115 -3 14 -19 93 -36
175 -45 223 -47 232 -63 339 -9 54 -13 101 -10 104 2 3 22 -7 42 -21 46 -31
142 -87 149 -87 9 0 -19 24 -104 89 -81 61 -107 96 -96 126 4 8 1 15 -5 15 -6
0 -11 -3 -11 -7 0 -5 -4 -14 -9 -22 -7 -10 -27 -1 -92 44 -46 32 -104 72 -129
89 -25 17 -47 33 -50 36 -8 8 -192 124 -226 143 -53 28 -225 45 -314 30z"/>
<path d="M5454 12592 c-76 -122 -209 -411 -245 -533 -27 -90 -33 -306 -13
-494 7 -66 13 -160 13 -210 1 -52 5 -85 10 -80 25 27 31 221 17 495 -7 130 22
291 74 415 5 11 19 45 31 75 12 30 28 69 35 87 8 17 14 37 14 45 0 8 4 18 8
24 12 12 75 184 70 189 -2 2 -9 -4 -14 -13z"/>
<path d="M7101 12588 c-16 -5 -34 -14 -40 -22 -12 -14 -41 -115 -41 -141 0
-28 17 -15 28 23 7 20 21 52 32 70 17 28 25 32 62 32 46 0 237 -23 328 -39 96
-17 130 -20 130 -10 0 5 -11 9 -24 9 -14 0 -28 5 -31 10 -3 6 -19 10 -35 10
-16 0 -31 4 -34 9 -3 5 -20 12 -38 15 -18 4 -55 11 -83 17 -78 15 -222 25
-254 17z"/>
<path d="M9090 12540 c-19 -5 -83 -18 -142 -30 -126 -24 -193 -52 -305 -126
-190 -125 -337 -156 -563 -119 -52 8 -140 22 -195 30 -112 17 -175 48 -248
122 -46 47 -64 55 -46 22 30 -58 159 -169 194 -169 8 0 17 -4 20 -10 3 -5 19
-10 35 -10 16 0 39 -4 52 -9 13 -5 84 -16 158 -25 74 -9 150 -19 168 -21 74
-11 302 44 364 87 14 10 28 18 31 18 3 0 36 21 74 46 99 67 202 113 341 154
67 20 119 39 116 43 -8 8 -6 8 -54 -3z"/>
<path d="M7270 12387 c0 -8 10 -19 23 -26 19 -10 14 -11 -32 -6 -37 3 -51 1
-44 -6 5 -5 33 -12 61 -14 28 -2 60 -8 71 -14 30 -17 36 -13 16 9 -20 22 -10
25 29 10 14 -5 26 -6 26 -1 0 11 -62 41 -83 41 -9 0 -19 5 -22 10 -9 15 -45
12 -45 -3z"/>
<path d="M9304 12346 c-99 -36 -169 -71 -254 -126 -73 -48 -102 -58 -185 -63
-53 -3 -88 -13 -147 -40 -90 -42 -166 -64 -263 -73 -38 -4 -77 -11 -85 -16
-11 -7 -9 -8 8 -5 12 3 47 2 78 -2 83 -12 209 15 304 64 41 21 59 25 148 29
77 4 122 25 249 118 29 21 101 63 160 93 123 62 119 69 -13 21z"/>
<path d="M10108 12375 c-2 -3 -90 -7 -194 -11 -206 -6 -257 -17 -356 -75 -27
-16 -51 -29 -53 -29 -4 0 -142 -87 -154 -97 -2 -1 -2 -5 0 -8 3 -2 23 4 45 15
278 134 321 150 409 150 49 1 144 11 225 24 8 2 36 6 62 11 26 4 45 11 42 16
-6 10 -18 12 -26 4z"/>
<path d="M6291 12336 c3 -3 36 -10 74 -15 39 -6 108 -17 155 -25 119 -21 172
-21 168 0 -5 27 -89 41 -251 43 -83 1 -149 0 -146 -3z"/>
<path d="M7758 12137 c6 -7 39 -18 74 -25 35 -7 77 -17 93 -22 49 -15 415 -59
415 -50 0 12 -283 71 -405 85 -71 8 -143 17 -159 20 -22 4 -26 2 -18 -8z"/>
<path d="M6391 10926 c2 -2 27 -6 54 -10 34 -4 45 -3 35 4 -14 9 -99 15 -89 6z"/>
<path d="M6505 10905 c80 -25 127 -36 132 -32 3 3 -8 9 -23 12 -16 3 -37 10
-46 16 -10 5 -30 9 -45 8 -16 0 -23 -2 -18 -4z"/>
<path d="M10654 10797 c-17 -34 -57 -112 -88 -174 -48 -93 -58 -122 -63 -180
-6 -83 16 -240 67 -473 12 -52 26 -119 32 -147 14 -71 30 -67 23 5 -3 31 -7
84 -10 117 -3 33 -10 96 -16 140 -6 44 -13 91 -15 105 -2 14 -8 57 -13 95 -18
122 -5 232 38 330 5 11 18 40 29 65 43 97 50 116 56 148 8 49 -6 38 -40 -31z"/>
<path d="M6145 10139 c169 -57 275 -75 170 -30 -59 26 -158 51 -200 50 -24 0
-18 -4 30 -20z"/>
<path d="M5816 10125 c-58 -23 -146 -89 -154 -114 -3 -8 15 0 39 16 24 16 73
46 109 66 36 20 72 41 80 47 28 19 -11 11 -74 -15z"/>
<path d="M6037 10119 c-20 -5 -55 -18 -77 -29 -44 -22 -54 -25 -45 -10 9 14
-2 12 -41 -6 -19 -9 -34 -20 -34 -25 0 -5 14 -3 30 6 17 9 30 13 30 10 0 -8
-226 -115 -243 -115 -8 0 -19 -6 -25 -12 -24 -30 -82 -141 -82 -159 0 -14 -8
-19 -32 -20 -69 -3 -163 -13 -233 -24 -47 -8 -161 -37 -175 -46 -14 -8 14 -7
155 7 160 17 779 3 950 -20 22 -3 63 -8 90 -12 28 -3 61 -7 75 -9 14 -2 75 -9
135 -15 183 -18 319 -38 366 -53 24 -8 80 -22 124 -32 84 -18 252 -94 234
-105 -10 -7 10 -16 81 -38 19 -6 79 -16 133 -23 78 -9 103 -9 121 1 40 21 53
11 39 -30 -11 -32 -13 -33 -19 -12 -3 12 -10 22 -14 22 -7 0 -30 -152 -30
-203 0 -27 -1 -27 -72 -27 -83 0 -123 -15 -67 -24 19 -3 85 -7 147 -9 111 -3
146 6 76 19 -35 6 -36 8 -31 43 3 20 10 59 17 86 6 28 11 59 11 70 1 11 3 35
5 53 5 30 8 32 44 32 42 0 74 11 104 35 26 20 14 30 -16 14 -22 -12 -107 -28
-173 -32 -16 -1 -93 2 -170 7 -124 7 -143 11 -165 31 -31 28 -139 99 -163 108
-11 4 -15 12 -11 19 6 9 9 9 12 0 8 -24 20 -11 31 32 16 63 14 72 -8 52 -18
-16 -19 -16 -24 11 -7 35 -4 37 22 23 12 -6 21 -7 21 -3 0 11 -30 29 -135 81
-49 24 -119 61 -155 82 -98 57 -249 112 -517 190 -133 38 -246 70 -250 69 -4
-1 -25 -5 -46 -10z m33 -63 c0 -9 -7 -12 -20 -9 -24 6 -24 10 0 -56 26 -67 20
-76 -12 -19 -14 24 -30 42 -37 40 -6 -1 -14 5 -18 14 -7 18 15 36 34 29 7 -2
15 0 18 5 9 15 35 12 35 -4z m69 -108 c23 -68 46 -124 51 -126 21 -7 9 -23
-12 -16 -31 9 -31 10 -34 47 -4 41 -28 131 -48 180 -9 20 -12 37 -8 37 5 0 28
-55 51 -122z m15 96 c3 -9 6 -23 6 -32 0 -13 -3 -12 -15 4 -16 21 -19 44 -6
44 5 0 12 -7 15 -16z m62 -11 c16 -21 18 -37 4 -28 -13 8 -33 45 -24 45 4 0
13 -8 20 -17z m-237 -35 c1 -3 -10 -1 -24 5 -29 14 -32 24 -7 29 15 3 29 -12
31 -34z m321 9 c0 -4 -5 -5 -11 -1 -14 8 -15 12 41 -101 25 -49 48 -91 52 -93
5 -2 8 -12 8 -23 0 -10 5 -19 11 -19 6 0 8 17 4 48 l-5 47 22 -57 c22 -60 45
-80 34 -30 l-7 27 21 -25 c11 -14 20 -28 20 -32 0 -5 4 -8 10 -8 18 0 -67 189
-105 235 l-17 20 7 -20 c6 -19 5 -19 -11 -3 -24 23 -11 33 27 22 27 -8 35 -20
74 -117 24 -59 50 -119 59 -132 16 -25 36 -33 36 -16 0 14 -95 218 -109 235
-8 9 -10 16 -5 16 20 0 33 -18 53 -67 30 -78 101 -216 108 -210 8 8 -15 73
-58 161 -21 44 -37 82 -34 84 2 2 16 2 30 -2 20 -5 36 -29 84 -131 33 -69 63
-125 66 -125 4 0 4 8 1 17 -6 15 -5 15 11 1 31 -26 43 -31 37 -14 -10 26 12
18 24 -9 7 -15 8 -25 2 -25 -48 0 -225 35 -274 54 -33 14 -97 34 -141 46 -114
30 -112 29 -96 39 8 5 17 26 20 47 l7 39 21 -55 c16 -40 23 -50 28 -38 9 22
-9 77 -51 157 -40 76 -44 97 -14 79 11 -7 20 -16 20 -21z m-345 -72 c19 -40
35 -78 35 -84 0 -6 -13 -8 -32 -5 -50 9 -60 13 -53 24 6 10 -17 59 -43 92 -8
9 -12 23 -10 30 3 7 21 -18 41 -57 21 -41 36 -62 37 -50 1 20 1 20 15 1 23
-31 18 2 -8 54 -12 25 -27 45 -34 45 -20 0 -28 16 -13 25 21 13 27 6 65 -75z
m380 65 c3 -5 1 -10 -4 -10 -6 0 -11 5 -11 10 0 6 2 10 4 10 3 0 8 -4 11 -10z
m-505 -30 c0 -5 -2 -10 -4 -10 -3 0 -8 5 -11 10 -3 6 -1 10 4 10 6 0 11 -4 11
-10z m164 -6 c3 -8 2 -12 -4 -9 -6 3 -10 10 -10 16 0 14 7 11 14 -7z m-195
-41 c17 -36 25 -43 32 -32 5 8 9 11 9 7 0 -3 3 -13 6 -22 4 -11 0 -16 -14 -16
-15 0 -27 13 -41 45 -11 25 -24 45 -28 44 -20 -3 -27 2 -13 11 23 15 24 13 49
-37z m-65 12 c6 -17 4 -18 -18 -9 -20 8 -21 24 -2 24 8 0 16 -7 20 -15z m-17
-40 l33 -44 -43 -9 c-37 -8 -44 -6 -59 12 -22 27 -22 38 0 34 11 -2 16 3 15
16 -1 16 3 14 22 -10 30 -36 33 -23 4 17 -11 16 -17 29 -12 29 4 -1 23 -21 40
-45z m344 -43 c20 -8 7 -23 -18 -20 -24 3 -27 7 -29 53 l-2 49 21 -39 c11 -22
24 -41 28 -43z m591 58 c22 -11 74 -87 65 -96 -3 -3 -18 14 -35 36 -24 33 -31
38 -34 23 -3 -14 -7 -11 -20 15 -18 34 -13 38 24 22z m-867 -30 c9 -17 11 -30
5 -30 -5 0 -10 6 -10 13 0 9 -2 9 -9 -1 -5 -9 -8 -3 -7 17 1 17 2 31 3 31 1 0
9 -13 18 -30z m95 -11 c0 -5 -4 -9 -10 -9 -5 0 -10 7 -10 16 0 8 5 12 10 9 6
-3 10 -10 10 -16z m220 -31 c0 -5 -4 -8 -10 -8 -5 0 -10 10 -10 23 0 18 2 19
10 7 5 -8 10 -18 10 -22z m650 22 c0 -5 -2 -10 -4 -10 -3 0 -8 5 -11 10 -3 6
-1 10 4 10 6 0 11 -4 11 -10z m-1115 -20 c3 -5 -1 -10 -9 -10 -9 0 -16 5 -16
10 0 6 4 10 9 10 6 0 13 -4 16 -10z m505 -21 c0 -5 -7 -6 -15 -3 -8 4 -15 13
-15 21 0 13 3 13 15 3 8 -7 15 -16 15 -21z m89 -11 c1 -5 -3 -8 -9 -8 -5 0
-10 12 -9 28 0 24 1 25 9 7 5 -11 9 -23 9 -27z m576 32 c3 -5 2 -10 -4 -10 -5
0 -13 5 -16 10 -3 6 -2 10 4 10 5 0 13 -4 16 -10z m-905 -36 c52 -8 133 -21
180 -30 47 -8 121 -22 165 -29 166 -30 188 -34 194 -41 3 -4 -14 -4 -39 0 -83
12 -374 35 -528 42 -84 4 -166 8 -182 9 -17 1 -50 2 -75 3 -25 1 -45 5 -45 10
1 24 24 35 81 41 108 10 151 9 249 -5z m978 1 c41 -22 120 -55 132 -55 5 0 20
-6 33 -12 12 -7 23 -14 25 -15 5 -2 -22 -43 -29 -43 -4 0 -12 14 -20 32 -7 17
-15 26 -17 19 -3 -8 -8 -6 -18 6 -12 17 -13 17 -14 1 0 -24 30 -99 48 -120 13
-16 13 -18 -1 -18 -29 0 -47 12 -47 31 0 24 -60 149 -71 149 -5 0 -6 -7 -3
-15 11 -27 -20 -7 -38 25 -19 34 -17 36 20 15z m-42 -152 c-3 -3 -12 -3 -20 0
-10 4 -14 20 -14 49 l1 43 19 -43 c11 -24 17 -46 14 -49z m43 -5 c1 -5 -6 -8
-14 -8 -15 0 -21 31 -8 44 7 6 20 -17 22 -36z m39 -17 c-15 -5 -21 7 -13 26 7
17 8 17 15 -2 4 -11 3 -22 -2 -24z m42 -1 c0 -5 -4 -10 -10 -10 -5 0 -10 5
-10 10 0 6 5 10 10 10 6 0 10 -4 10 -10z m620 -475 c0 -8 -4 -15 -10 -15 -5 0
-7 7 -4 15 4 8 8 15 10 15 2 0 4 -7 4 -15z"/>
<path d="M8875 9951 c-59 -9 -22 -19 74 -22 88 -2 116 6 55 16 -69 11 -88 11
-129 6z"/>
<path d="M8435 9912 c-85 -6 -110 -12 -165 -39 -36 -18 -94 -55 -129 -84 -50
-41 -65 -49 -72 -38 -8 11 -12 10 -24 -5 -8 -11 -15 -29 -15 -41 0 -12 -12
-32 -26 -46 -14 -13 -30 -32 -36 -42 -8 -16 -7 -17 10 -8 18 9 19 8 14 -12 -5
-20 -4 -20 11 -8 15 12 17 11 17 -7 0 -12 -8 -22 -22 -26 -13 -3 -52 -24 -88
-47 -77 -50 -75 -48 -69 -54 3 -2 38 11 79 31 41 19 90 36 109 37 20 1 39 6
42 11 4 5 40 20 80 33 163 54 245 70 397 80 88 5 92 5 92 -15 0 -24 19 -32 68
-31 l37 1 -43 10 c-51 11 -53 35 -3 30 23 -3 31 0 26 7 -4 8 5 10 32 6 58 -8
88 -13 88 -15 0 0 25 -3 55 -5 72 -6 421 -51 530 -69 47 -7 130 -19 185 -26
96 -11 130 -17 233 -41 51 -12 492 -67 492 -61 0 12 -97 36 -310 77 -135 25
-253 51 -262 56 -10 5 -36 9 -58 9 -39 0 -53 12 -27 24 16 8 -43 -1 -65 -9
-11 -4 -18 -3 -18 4 0 6 8 11 18 11 10 0 27 7 38 15 19 13 24 12 55 -10 61
-46 59 -25 -4 31 -34 31 -93 88 -131 126 -39 38 -87 78 -108 89 -42 21 -52 24
-43 9 8 -14 -19 -13 -165 5 -259 33 -634 49 -825 37z m135 -52 c0 -5 -6 -10
-13 -10 -23 0 -140 -50 -202 -88 -33 -19 -85 -57 -117 -83 -51 -44 -105 -75
-114 -66 -4 4 22 24 138 104 149 104 214 141 254 146 22 2 42 4 47 5 4 1 7 -2
7 -8z m90 2 c0 -4 -15 -12 -32 -18 -18 -6 -57 -20 -85 -32 -77 -31 -65 -17 19
23 72 35 98 42 98 27z m98 -1 c10 -6 6 -10 -15 -15 -15 -4 -37 -9 -48 -12 -17
-4 -16 -2 5 15 28 23 38 25 58 12z m72 -1 c0 -5 -4 -10 -9 -10 -5 0 -18 -3
-28 -6 -16 -5 -16 -4 1 10 23 18 36 20 36 6z m70 -7 c0 -5 -33 -23 -73 -41
-39 -19 -103 -52 -140 -74 -37 -23 -71 -38 -74 -34 -9 8 -11 7 107 70 58 31
116 63 130 70 28 16 50 20 50 9z m-619 -48 c-46 -25 -101 -59 -123 -76 -21
-17 -41 -29 -44 -26 -10 10 128 106 181 126 80 32 76 24 -14 -24z m776 39 c-3
-3 -12 -4 -19 -1 -8 3 -5 6 6 6 11 1 17 -2 13 -5z m421 -27 c12 -11 22 -23 22
-26 0 -4 -28 -17 -62 -31 -35 -13 -102 -44 -150 -68 -58 -30 -92 -42 -105 -38
-18 8 -11 11 190 104 56 26 57 27 30 34 -27 7 -128 -13 -166 -34 -14 -7 -18
-7 -15 3 2 6 34 22 71 34 37 12 69 24 72 27 12 12 -93 -1 -127 -16 -46 -20
-59 -20 -34 -1 17 13 16 14 -17 20 -28 6 -50 -1 -124 -38 -49 -24 -109 -57
-132 -71 -24 -15 -45 -25 -48 -23 -6 6 37 36 123 86 40 23 61 41 50 41 -20 0
-20 0 0 15 16 12 51 13 209 9 174 -6 192 -8 213 -27z m-562 -57 c-122 -62
-164 -74 -79 -24 49 28 170 82 188 83 6 0 -44 -26 -109 -59z m-450 15 c-11 -8
-27 -15 -35 -14 -9 0 -2 7 14 14 39 18 45 18 21 0z m669 -14 c-27 -15 -70 -40
-95 -54 -25 -15 -56 -27 -70 -27 -22 0 -20 3 20 30 25 16 50 30 55 30 6 1 33
12 60 25 69 33 91 31 30 -4z m-670 -36 c-47 -33 -100 -53 -112 -41 -3 3 16 15
43 26 27 11 60 27 74 35 47 27 44 15 -5 -20z m1080 24 c11 -17 0 -21 -60 -23
l-56 -2 33 17 c38 21 74 24 83 8z m-920 -9 c-10 -15 -65 -42 -78 -37 -7 2 6
13 28 25 44 23 59 27 50 12z m966 -39 l23 -18 -40 -13 c-21 -8 -46 -14 -54
-15 -8 -1 -26 -5 -40 -9 -24 -7 -24 -7 3 12 20 13 24 21 15 24 -8 3 -2 11 17
21 39 21 48 21 76 -2z m-1294 -16 c-15 -14 -33 -25 -39 -25 -6 0 4 11 23 24
44 32 51 32 16 1z m-162 -30 c-22 -18 -42 -31 -45 -29 -7 8 58 64 73 64 6 -1
-6 -16 -28 -35z m1177 9 c-23 -14 -47 -22 -54 -18 -6 4 7 14 33 24 63 26 70
24 21 -6z m93 6 c-3 -5 -11 -10 -16 -10 -6 0 -7 5 -4 10 3 6 11 10 16 10 6 0
7 -4 4 -10z m244 -14 c17 -20 -2 -29 -46 -21 -33 6 -34 7 -17 20 24 18 49 19
63 1z"/>
<path d="M9203 9903 c9 -2 23 -2 30 0 6 3 -1 5 -18 5 -16 0 -22 -2 -12 -5z"/>
<path d="M5070 9816 c-75 -26 -154 -65 -147 -72 12 -12 247 75 247 91 0 10
-38 3 -100 -19z"/>
<path d="M7969 9801 c-46 -31 -109 -91 -94 -91 9 0 145 108 145 115 0 8 -6 6
-51 -24z"/>
<path d="M7994 9764 c-17 -8 -44 -29 -60 -46 -26 -28 -23 -27 34 12 34 23 62
44 62 46 0 6 -2 5 -36 -12z"/>
<path d="M5097 9750 c-47 -18 -81 -39 -74 -46 6 -6 115 34 139 50 21 15 21 16
3 16 -11 -1 -42 -9 -68 -20z"/>
<path d="M10934 9723 c-3 -10 -9 -27 -14 -38 -7 -17 -9 -16 -10 10 l-1 30 -15
-27 c-8 -16 -19 -28 -24 -28 -14 0 -13 7 6 35 24 36 5 30 -32 -10 -17 -19 -38
-35 -45 -35 -9 1 -7 6 5 15 14 11 17 18 9 26 -7 7 -37 0 -101 -25 -51 -20 -95
-36 -100 -36 -5 0 -19 -11 -33 -26 -13 -14 -17 -23 -9 -20 8 2 35 7 60 10 25
3 61 10 80 15 19 6 37 10 40 10 3 0 18 4 34 10 27 11 28 10 22 -14 -9 -34 5
-31 26 5 10 18 25 30 38 30 25 0 25 -4 -1 -29 -21 -20 -50 -115 -42 -139 8
-21 23 -2 23 29 0 27 3 30 23 23 30 -9 29 -7 20 -45 -7 -25 -22 -42 -56 -64
-55 -35 -62 -52 -12 -28 19 9 38 14 41 10 4 -3 -15 -40 -40 -81 -67 -108 -225
-439 -195 -408 20 19 29 14 19 -12 -5 -15 -5 -27 2 -34 7 -7 6 -32 -6 -84 -27
-118 -34 -159 -46 -238 -11 -74 -13 -88 -24 -205 -4 -33 -6 -150 -7 -260 0
-187 -6 -262 -29 -360 -28 -123 -54 -222 -61 -235 -10 -18 -47 -121 -61 -170
-16 -57 -71 -204 -80 -214 -4 -6 -8 -16 -8 -24 0 -8 -7 -30 -16 -50 -9 -21
-22 -52 -30 -70 -8 -18 -14 -37 -14 -43 0 -6 -30 -72 -66 -147 -79 -164 -122
-273 -130 -327 -6 -36 -5 -38 8 -20 7 11 27 49 43 85 17 36 43 88 59 115 58
102 123 239 151 320 9 28 23 64 31 82 8 17 14 38 14 46 0 9 4 18 9 22 5 3 12
19 16 36 4 17 13 42 21 57 8 15 14 35 14 45 0 9 5 17 10 17 6 0 10 9 10 20 0
21 29 100 63 170 12 25 26 61 32 80 9 30 15 35 47 37 49 4 103 28 137 61 48
47 141 200 141 232 0 9 4 20 8 26 5 5 14 36 21 69 14 65 27 123 41 170 5 17
12 57 15 90 4 33 14 85 22 115 23 87 44 182 49 225 3 22 9 51 14 65 4 14 13
45 20 70 15 52 38 126 50 155 45 110 78 360 64 478 -19 148 -54 182 -181 173
-83 -5 -83 -5 -59 80 8 27 17 75 20 107 5 47 4 57 -9 57 -9 0 -18 -8 -21 -17z
m157 -290 c33 -33 45 -146 29 -288 -12 -110 -37 -231 -59 -280 -5 -11 -17 -47
-26 -80 -9 -33 -21 -71 -25 -85 -10 -30 -23 -88 -45 -195 -9 -44 -20 -96 -25
-115 -18 -65 -28 -115 -35 -165 -4 -27 -15 -84 -25 -125 -9 -41 -23 -101 -30
-133 -8 -32 -17 -60 -22 -63 -4 -3 -8 -13 -8 -23 0 -27 -82 -184 -116 -224
-31 -36 -59 -54 -107 -68 -29 -8 -29 -8 -22 24 3 18 9 50 12 72 3 22 12 60 20
85 11 35 15 99 14 285 -1 280 9 429 42 615 l23 135 45 3 c41 3 46 1 57 -23 16
-35 15 -74 -4 -126 -10 -28 -17 -81 -17 -146 -3 -188 34 -136 67 95 7 45 9 82
5 82 -3 0 -9 25 -11 55 -5 61 -28 95 -65 95 -12 0 -23 3 -23 6 0 3 22 47 49
97 27 51 69 131 94 178 24 47 59 111 77 143 18 31 30 59 28 62 -11 11 -129
-150 -171 -232 -21 -43 -85 -197 -101 -246 -3 -10 -10 -18 -16 -18 -24 0 6
102 70 245 5 11 21 49 36 85 14 36 46 104 70 152 47 93 50 103 33 92 -7 -4
-10 1 -7 12 5 28 46 43 111 40 42 -2 64 -8 78 -23z"/>
<path d="M10997 9234 c-16 -9 -27 -18 -24 -20 8 -9 87 18 81 27 -7 13 -25 10
-57 -7z"/>
<path d="M10794 8163 c-3 -16 -10 -44 -15 -63 -15 -64 -21 -148 -9 -155 12 -7
12 -6 34 91 18 81 21 154 6 154 -5 0 -12 -12 -16 -27z"/>
<path d="M4817 9693 c-23 -26 -25 -48 -32 -265 -3 -131 -2 -198 5 -198 5 0 10
11 10 25 0 14 6 45 12 70 l12 46 66 -7 c36 -3 67 -8 69 -10 8 -7 8 -74 -1 -74
-4 0 -8 4 -8 9 0 5 -7 12 -16 15 -12 4 -9 -4 10 -28 17 -23 26 -47 26 -70 0
-20 5 -36 10 -36 6 0 10 -7 10 -15 0 -10 7 -15 17 -13 13 2 19 -6 24 -32 4
-19 7 -26 8 -15 2 18 4 17 13 -5 6 -14 27 -59 46 -100 53 -114 107 -250 119
-300 44 -178 45 -180 87 -225 55 -59 185 -151 266 -187 36 -16 99 -45 140 -65
96 -45 97 -46 210 -74 124 -30 268 -33 508 -8 188 19 258 34 346 75 27 13 52
22 54 20 5 -5 -61 -137 -103 -207 -51 -83 -67 -136 -60 -189 8 -56 37 -122 70
-162 19 -22 23 -33 14 -38 -8 -5 -4 -10 12 -15 30 -9 92 -72 84 -85 -4 -6 8
-10 27 -10 19 0 39 -5 45 -11 5 -5 32 -8 59 -6 l49 3 -55 3 c-44 2 -50 5 -30
11 21 7 17 8 -20 9 -39 1 -48 5 -63 30 l-17 30 32 -11 c18 -6 52 -16 75 -22
23 -6 45 -15 49 -19 4 -4 20 -7 35 -7 15 0 31 -4 34 -10 3 -5 25 -10 48 -10
l42 1 -70 30 c-38 17 -79 34 -90 39 -43 18 -112 39 -147 44 -42 8 -64 33 -105
122 -33 73 -35 159 -4 226 11 26 21 53 22 60 0 7 14 33 30 58 33 52 79 144 79
159 0 6 44 54 98 108 84 84 154 179 181 248 2 6 15 33 27 62 13 28 24 54 24
57 0 2 20 46 44 98 24 51 47 104 50 118 17 64 32 109 52 150 12 25 20 47 18
49 -10 11 -37 -30 -79 -117 -26 -53 -58 -119 -73 -147 -14 -27 -29 -57 -33
-65 -5 -8 -40 -82 -80 -164 -66 -139 -77 -154 -158 -236 -158 -160 -228 -190
-507 -220 -273 -29 -396 -24 -575 25 -72 19 -309 132 -379 181 -141 96 -168
132 -191 248 -19 102 -73 226 -150 353 -64 104 -109 204 -109 241 0 19 6 48
14 65 46 101 86 243 85 302 0 23 -7 11 -30 -50 -36 -96 -46 -109 -46 -58 0 52
-12 90 -23 72 -9 -14 -5 -52 11 -109 8 -27 7 -43 -5 -72 -9 -21 -18 -38 -20
-38 -2 0 -23 9 -47 19 -24 11 -66 23 -92 26 l-49 8 8 81 c4 44 8 104 8 131 1
57 -1 56 115 45 97 -9 79 7 -39 36 -74 17 -84 17 -103 -3z m182 -380 c0 -25
-1 -26 -9 -8 -12 27 -12 35 0 35 6 0 10 -12 9 -27z"/>
<path d="M5690 9673 c-74 -8 -277 -45 -327 -59 -102 -29 -67 -30 187 0 273 31
413 37 545 23 39 -4 93 -10 120 -12 l50 -5 -55 15 c-129 37 -367 54 -520 38z"/>
<path d="M8493 9623 c9 -2 23 -2 30 0 6 3 -1 5 -18 5 -16 0 -22 -2 -12 -5z"/>
<path d="M8408 9615 c-2 -3 -29 -9 -58 -15 -57 -11 -142 -47 -175 -74 -18 -15
-17 -15 20 0 53 22 103 39 200 68 58 18 72 24 49 25 -17 1 -33 -1 -36 -4z"/>
<path d="M5625 9600 c-114 -13 -273 -50 -214 -50 12 0 11 -2 -1 -11 -15 -10
149 -6 280 8 161 16 740 11 740 -7 0 -4 -42 -10 -92 -13 -154 -10 -238 -31
-427 -107 -178 -70 -217 -99 -76 -54 44 14 87 27 95 29 49 12 191 48 225 56
51 14 63 16 120 25 51 7 306 -11 370 -28 22 -5 65 -11 95 -14 69 -5 53 8 -45
36 -133 39 -180 54 -190 63 -12 11 90 0 120 -13 11 -4 47 -17 80 -28 55 -19
95 -30 212 -61 55 -15 219 -171 208 -198 -7 -18 -18 -72 -50 -263 -34 -200
-31 -189 -76 -270 -55 -100 -216 -298 -276 -343 -60 -44 -91 -77 -73 -77 21 0
172 105 205 142 109 122 120 135 168 208 45 70 63 106 75 150 19 74 32 209 33
332 0 95 3 117 15 120 18 4 -69 132 -119 174 -44 37 -105 64 -149 64 -20 0
-74 16 -120 36 -135 59 -148 62 -294 68 -76 4 -249 13 -384 21 -261 16 -344
17 -455 5z"/>
<path d="M7227 9590 c-27 -5 -51 -10 -52 -12 -2 -2 31 -5 73 -6 107 -3 232
-20 248 -33 15 -12 85 -4 122 15 20 11 15 12 -36 8 -42 -3 -68 1 -92 13 -38
20 -189 29 -263 15z"/>
<path d="M8735 9574 c-60 -7 -157 -15 -215 -18 -58 -3 -138 -12 -178 -21 -40
-8 -86 -17 -101 -19 -16 -2 -34 -7 -41 -11 -7 -4 -26 -8 -41 -7 -16 0 -31 -3
-33 -7 -5 -8 30 -7 95 4 28 4 40 4 34 -2 -16 -15 -126 -54 -136 -48 -9 6 -110
-42 -120 -56 -3 -5 -28 -26 -57 -48 -78 -58 -92 -80 -99 -158 -4 -49 -1 -76
10 -96 l14 -27 13 43 c6 25 10 74 8 110 -3 63 -2 66 22 71 14 3 51 27 84 53
75 61 91 70 146 78 24 4 48 9 52 11 8 5 95 30 158 44 19 5 55 11 80 14 25 3
61 8 80 11 228 33 438 45 468 27 7 -5 -17 -8 -53 -8 -37 0 -70 -5 -77 -12 -7
-7 -21 -12 -32 -12 -44 0 3 -19 69 -28 l70 -9 -75 -3 c-41 -1 -97 -5 -125 -10
-51 -7 -52 -14 -3 -10 15 1 36 -3 47 -9 14 -8 20 -8 23 1 3 8 9 8 25 -1 12 -6
34 -11 50 -11 15 0 35 -4 43 -10 9 -6 -29 -9 -110 -9 -130 0 -176 -6 -313 -41
-97 -25 -128 -46 -52 -35 56 9 70 10 172 20 64 6 72 5 76 -11 4 -18 5 -18 6
-1 0 10 7 17 14 14 6 -2 20 0 30 5 12 6 36 6 65 -1 26 -5 99 -14 162 -20 109
-10 204 -35 239 -64 28 -23 173 -99 178 -93 8 7 -191 143 -247 169 -30 14 -77
29 -105 33 -47 7 -48 8 -20 15 28 6 28 7 -10 8 -22 1 -47 6 -55 11 -10 7 15 9
80 6 52 -2 86 0 75 4 -18 7 -18 8 5 12 16 3 3 7 -35 12 -33 4 -78 11 -100 16
-37 7 -36 8 30 11 39 1 81 2 94 1 19 -1 22 3 18 20 -6 20 -3 20 56 14 112 -11
339 -27 343 -23 2 2 -63 16 -144 31 -81 16 -156 32 -167 36 -22 9 -150 26
-265 35 -41 3 -84 8 -95 9 -11 2 -69 -3 -130 -10z"/>
<path d="M10679 9576 c-2 -3 -17 -7 -32 -10 -67 -12 -279 -97 -260 -103 14 -5
174 33 216 51 162 69 155 66 116 66 -20 0 -38 -2 -40 -4z"/>
<path d="M10670 9485 c-25 -52 -41 -173 -22 -162 5 4 12 19 15 34 2 16 12 55
21 87 23 81 15 103 -14 41z"/>
<path d="M5286 9433 c-24 -77 -56 -329 -56 -436 0 -267 45 -16 66 371 4 79 1
101 -10 65z"/>
<path d="M9680 9429 c-19 -5 -20 -7 -6 -8 72 -4 216 -81 216 -116 0 -5 15 -33
34 -60 29 -44 55 -132 49 -170 -1 -5 -8 -48 -17 -94 -9 -46 -18 -150 -21 -230
-8 -198 -10 -213 -51 -295 -45 -90 -156 -258 -208 -314 -77 -84 -195 -122
-374 -122 -119 0 -935 92 -983 111 -31 12 -114 90 -189 177 -30 35 -56 59 -58
53 -10 -30 125 -201 158 -201 6 0 10 -5 10 -11 0 -20 -83 36 -127 86 -24 28
-68 96 -98 153 -30 57 -58 109 -63 115 -17 21 -49 82 -82 156 -17 40 -56 114
-86 164 -30 50 -54 96 -54 102 0 5 -10 21 -21 35 l-20 25 6 -35 c4 -19 31 -89
60 -155 28 -66 63 -147 76 -180 12 -33 39 -87 59 -120 20 -33 60 -105 88 -160
55 -107 128 -193 192 -224 51 -26 162 -48 350 -71 91 -11 264 -32 385 -47 287
-35 500 -39 599 -11 142 40 206 89 299 228 20 30 40 60 45 65 15 20 99 171
114 205 8 19 23 62 32 95 10 33 21 67 26 75 4 9 11 30 14 48 4 17 12 34 17 37
5 4 9 15 9 27 0 41 53 174 84 211 27 32 48 43 151 78 66 22 134 48 151 58 17
10 46 23 65 30 36 12 115 78 105 88 -3 3 -27 -8 -53 -25 -26 -17 -61 -34 -78
-38 -35 -8 -88 -33 -95 -45 -4 -5 -20 -12 -37 -15 l-32 -6 19 72 c23 90 34
200 21 220 -9 13 -10 13 -14 0 -13 -45 -28 -126 -38 -206 l-11 -91 -76 -19
c-66 -16 -83 -25 -119 -63 -43 -44 -69 -99 -94 -198 -18 -73 -33 -68 -25 8 3
34 6 120 6 191 0 122 1 128 19 119 12 -7 20 -26 24 -62 4 -29 11 -57 17 -63 7
-7 10 26 11 105 1 109 2 111 12 59 8 -46 11 -51 17 -30 8 32 13 246 4 238 -3
-4 -12 -30 -19 -60 l-13 -53 -1 70 c-2 91 -15 68 -30 -50 -6 -49 -12 -101 -14
-115 l-3 -25 -12 28 c-7 16 -12 50 -12 76 0 78 -12 149 -21 126 -4 -11 -8 -37
-8 -57 -1 -42 -16 -51 -25 -15 -9 37 -44 76 -89 98 -47 24 -130 38 -167 28z"/>
<path d="M7836 9397 c-9 -20 -19 -59 -22 -85 -5 -47 -5 -47 10 -17 22 46 39
111 33 126 -3 9 -11 -1 -21 -24z"/>
<path d="M6335 9410 c-14 -5 -6 -9 29 -13 68 -10 105 -9 86 2 -22 12 -92 19
-115 11z"/>
<path d="M10706 9348 c-14 -90 -15 -106 -8 -138 l8 -35 43 78 c46 84 49 107 7
57 l-26 -32 -2 29 c0 15 0 38 1 51 3 35 -18 26 -23 -10z"/>
<path d="M6250 9353 c-14 -3 -56 -13 -95 -24 -38 -11 -78 -21 -89 -24 -80 -19
-236 -90 -236 -107 0 -8 48 5 79 21 24 13 247 63 341 77 35 5 244 5 310 0 19
-2 47 -4 63 -5 34 -1 34 -11 -3 -88 -42 -91 -70 -106 -185 -100 -50 2 -102 10
-115 17 -40 21 -79 72 -86 113 -9 53 -28 47 -22 -8 7 -59 48 -116 103 -145 35
-18 59 -22 127 -22 47 1 96 6 110 11 34 13 86 77 93 115 11 54 27 86 44 86 9
0 36 -9 60 -20 24 -11 51 -20 60 -20 20 -1 53 -25 45 -33 -4 -3 -3 -14 1 -24
7 -16 9 -15 14 7 9 31 -7 44 -125 104 -79 40 -102 47 -209 61 -113 14 -230 18
-285 8z"/>
<path d="M7857 9343 c-10 -9 -8 -43 2 -43 5 0 11 11 13 25 5 24 -2 32 -15 18z"/>
<path d="M8316 9311 c-35 -54 -62 -126 -70 -181 l-6 -45 20 55 c25 65 55 134
77 173 24 45 7 43 -21 -2z"/>
<path d="M8890 9300 c-16 -10 -7 -15 40 -23 14 -2 -11 -6 -55 -8 -120 -5 -128
-5 -158 -18 -16 -6 -32 -11 -37 -11 -9 0 -53 -13 -155 -46 -54 -18 -155 -75
-174 -98 -16 -19 11 -37 89 -62 30 -9 64 -21 75 -25 11 -4 52 -13 90 -20 84
-15 115 -28 68 -29 -51 0 -39 -17 20 -28 28 -6 70 -15 92 -20 22 -6 115 -18
207 -28 198 -21 243 -15 338 47 34 22 60 42 57 45 -2 3 -36 -10 -73 -28 -74
-35 -141 -42 -249 -24 l-50 8 30 13 c39 16 78 59 100 110 10 22 20 43 22 48 2
4 2 7 -1 7 -3 0 -24 -25 -46 -55 -22 -30 -49 -59 -61 -65 -41 -22 -105 -22
-185 0 -105 28 -171 71 -195 126 -30 66 -16 80 91 90 25 3 50 7 56 9 6 2 26 0
45 -5 30 -7 31 -8 9 -10 -41 -4 78 -18 163 -19 72 -1 82 -4 130 -36 69 -46 90
-60 167 -115 65 -46 155 -88 166 -77 3 3 -12 15 -34 26 -22 11 -82 55 -133 98
-165 137 -237 183 -290 184 -19 0 -43 4 -54 9 -17 7 -14 9 15 10 19 1 46 6 60
10 l25 8 -25 2 c-84 8 -167 8 -180 0z m37 -6 c-3 -3 -12 -4 -19 -1 -8 3 -5 6
6 6 11 1 17 -2 13 -5z m118 -94 l30 -8 -30 0 c-16 0 -39 3 -50 8 l-20 9 20 -1
c11 0 34 -4 50 -8z m-399 -45 c-8 -32 15 -88 51 -121 l28 -27 -35 7 c-19 4
-71 14 -115 21 -44 8 -111 20 -150 28 l-70 13 26 17 c39 26 149 68 199 77 73
12 73 13 66 -15z"/>
<path d="M8481 9114 c0 -11 3 -14 6 -6 3 7 2 16 -1 19 -3 4 -6 -2 -5 -13z"/>
<path d="M6380 9272 c0 -5 9 -17 20 -27 16 -15 26 -17 47 -9 14 5 28 15 31 22
3 10 -2 10 -22 1 -20 -10 -30 -9 -51 5 -14 9 -25 13 -25 8z"/>
<path d="M6984 9255 c-24 -37 -31 -179 -11 -225 l15 -35 1 50 c2 87 11 198 17
217 8 26 -3 22 -22 -7z"/>
<path d="M6076 9161 c61 -82 210 -163 325 -176 123 -15 160 -4 300 86 39 26
78 43 99 44 19 1 44 3 55 4 l20 2 -20 9 c-47 20 -98 10 -209 -42 -96 -45 -120
-52 -176 -53 -114 -1 -268 54 -357 127 -72 59 -82 59 -37 -1z"/>
<path d="M6885 9180 c3 -5 8 -10 11 -10 2 0 4 5 4 10 0 6 -5 10 -11 10 -5 0
-7 -4 -4 -10z"/>
<path d="M8866 9156 c9 -22 -17 -31 -32 -11 -17 23 -32 11 -18 -13 6 -9 23
-18 38 -20 21 -3 29 2 33 17 3 12 13 21 22 22 12 0 11 2 -4 9 -30 13 -45 12
-39 -4z"/>
<path d="M8960 9160 c34 -11 60 -11 35 0 -11 5 -29 8 -40 8 -16 0 -15 -2 5 -8z"/>
<path d="M8938 9143 c6 -2 18 -2 25 0 6 3 1 5 -13 5 -14 0 -19 -2 -12 -5z"/>
<path d="M7884 9065 c-13 -33 14 -257 41 -338 14 -43 53 -133 86 -200 96 -193
103 -187 28 24 -28 79 -55 158 -59 174 -4 17 -18 66 -30 110 -25 92 -27 99
-40 179 -11 66 -16 77 -26 51z"/>
<path d="M9285 9030 c3 -5 8 -10 11 -10 2 0 4 5 4 10 0 6 -5 10 -11 10 -5 0
-7 -4 -4 -10z"/>
<path d="M9530 9016 c0 -20 40 -86 51 -86 14 0 11 10 -16 57 -27 46 -35 52
-35 29z"/>
<path d="M6878 8981 c-48 -30 -67 -51 -48 -51 12 0 120 69 120 76 0 12 -31 1
-72 -25z"/>
<path d="M7950 8988 c0 -64 111 -387 133 -388 12 0 8 26 -17 97 -33 90 -61
175 -82 246 -19 62 -34 83 -34 45z"/>
<path d="M8440 8991 c0 -6 9 -11 19 -11 11 0 28 -3 38 -6 12 -5 15 -4 8 4 -15
16 -65 26 -65 13z"/>
<path d="M9290 8990 c-11 -7 -6 -10 20 -10 26 0 31 3 20 10 -8 5 -17 10 -20
10 -3 0 -12 -5 -20 -10z"/>
<path d="M5845 8910 c-7 -12 21 -12 85 -1 l45 8 -62 2 c-34 0 -65 -3 -68 -9z"/>
<path d="M8866 8861 c6 -6 42 -14 80 -17 57 -6 67 -4 56 7 -7 7 -41 15 -80 17
-49 3 -64 1 -56 -7z"/>
<path d="M10527 8728 c-71 -230 -78 -266 -97 -501 -5 -70 -15 -147 -21 -170
-6 -24 -9 -59 -7 -78 l3 -34 14 45 c7 25 17 54 21 65 18 48 32 128 50 293 20
175 44 323 60 372 4 14 14 51 21 83 23 108 1 69 -44 -75z"/>
<path d="M6200 8851 c-19 -6 -12 -9 35 -13 33 -3 76 -5 95 -3 19 2 54 4 78 6
24 1 45 6 48 11 6 10 -221 9 -256 -1z"/>
<path d="M5930 8808 c-69 -19 -48 -24 107 -26 168 -2 191 10 43 22 -47 4 -92
9 -100 11 -8 1 -31 -1 -50 -7z"/>
<path d="M8480 8726 c27 -27 154 -83 260 -116 58 -17 120 -39 138 -47 18 -8
38 -13 45 -10 7 2 -26 22 -73 45 -99 47 -391 149 -370 128z"/>
<path d="M9743 8733 c21 -5 23 -23 2 -23 -8 0 -15 -4 -15 -10 0 -15 26 -12 40
5 15 19 4 35 -23 34 -17 -1 -18 -2 -4 -6z"/>
<path d="M9275 8700 c-4 -6 12 -10 42 -10 35 0 44 3 33 10 -20 13 -67 13 -75
0z"/>
<path d="M5204 8540 c-21 -48 -47 -305 -40 -397 3 -49 10 -205 15 -348 14
-366 44 -574 108 -734 23 -58 140 -265 196 -344 42 -61 25 -12 -48 134 l-77
152 6 101 c14 217 15 292 5 266 -6 -14 -13 -96 -16 -184 l-6 -159 -23 44 c-20
39 -22 54 -18 129 5 88 8 296 5 365 0 24 -5 35 -10 30 -9 -10 -14 -31 -27
-123 -13 -82 -23 -26 -13 68 5 52 9 127 9 165 -2 119 0 145 10 145 6 0 10 -11
10 -24 0 -87 59 -242 168 -441 63 -115 233 -389 279 -450 l23 -30 -13 30 c-11
28 -53 109 -205 390 -136 255 -196 398 -206 491 -14 134 -28 317 -30 386 0 42
-4 71 -8 64 -18 -33 -30 -167 -24 -271 6 -90 4 -114 -8 -130 -14 -18 -14 -13
-10 55 3 52 1 69 -5 55 l-10 -20 0 20 c0 11 4 39 8 63 5 23 4 42 0 42 -5 0 -9
-5 -9 -12 0 -6 -2 -9 -5 -6 -3 3 4 44 15 92 23 100 24 113 5 71 -20 -43 -18
-10 5 90 24 105 24 102 1 108 -16 4 -22 -2 -28 -27 -6 -24 -9 -8 -13 69 -4 83
-7 96 -16 75z m23 -832 c-3 -8 -6 -5 -6 6 -1 11 2 17 5 13 3 -3 4 -12 1 -19z
m10 -140 c-3 -8 -6 -5 -6 6 -1 11 2 17 5 13 3 -3 4 -12 1 -19z m21 -169 c-3
-8 -7 -3 -11 10 -4 17 -3 21 5 13 5 -5 8 -16 6 -23z m22 -111 c-1 -28 -2 -30
-11 -15 -6 10 -8 25 -5 33 9 24 16 16 16 -18z"/>
<path d="M6864 8169 c-47 -84 -88 -183 -82 -199 4 -13 73 111 106 190 35 85
21 91 -24 9z"/>
<path d="M5326 8205 c-3 -9 -6 -22 -5 -28 0 -7 5 -1 10 12 5 13 8 26 5 28 -2
2 -6 -3 -10 -12z"/>
<path d="M5350 8168 c-11 -23 -20 -44 -20 -47 0 -10 30 37 40 63 15 41 3 30
-20 -16z"/>
<path d="M9074 8148 c-4 -6 -3 -8 4 -4 19 12 26 -17 7 -31 -11 -7 -14 -13 -9
-13 6 0 19 6 29 14 16 12 17 16 6 30 -16 19 -27 20 -37 4z"/>
<path d="M7927 8114 c-29 -47 -53 -324 -27 -324 6 0 10 28 10 63 0 34 7 102
16 151 15 87 16 132 1 110z"/>
<path d="M7290 8091 c0 -5 9 -7 20 -4 11 3 20 7 20 9 0 2 -9 4 -20 4 -11 0
-20 -4 -20 -9z"/>
<path d="M7424 8072 c13 -21 109 -96 98 -77 -5 11 -21 30 -34 41 -27 25 -73
51 -64 36z"/>
<path d="M8130 8035 c23 -28 91 -75 109 -75 15 0 -57 57 -104 82 -19 10 -19
10 -5 -7z"/>
<path d="M8281 7860 c-1 -41 4 -91 9 -110 6 -19 13 -71 16 -116 l7 -81 -129
-6 c-144 -8 -223 -22 -369 -68 -110 -35 -124 -43 -156 -83 -22 -28 -20 -47 3
-28 14 11 131 52 136 48 1 -2 -16 -11 -38 -21 -70 -32 -43 -34 52 -4 50 15 95
26 100 23 4 -3 8 -16 8 -30 0 -42 33 -60 173 -95 20 -5 56 -14 80 -19 94 -24
315 -59 369 -60 112 0 168 -42 273 -201 70 -106 112 -151 81 -89 -97 196 -124
241 -180 291 -36 32 -82 44 -220 59 -88 9 -355 53 -493 81 -46 9 -52 13 -58
40 -4 17 -5 32 -3 35 2 2 29 8 59 13 l54 9 -65 1 c-55 2 -61 4 -40 13 24 10
130 38 160 42 8 1 41 6 73 10 51 7 86 11 137 15 16 1 17 8 20 106 2 33 7 67
12 75 7 10 7 35 1 70 -9 51 -11 53 -20 30 -13 -29 -14 -26 -37 65 l-15 60 0
-75z"/>
<path d="M6911 7880 c-1 -33 31 -100 59 -125 20 -18 20 -15 -7 40 -16 33 -35
71 -41 85 l-11 25 0 -25z"/>
<path d="M7686 7858 c36 -60 56 -89 61 -84 7 6 -49 96 -60 96 -5 0 -5 -6 -1
-12z"/>
<path d="M10348 7686 c-2 -19 1 -49 7 -67 11 -32 12 -31 12 29 1 67 -12 94
-19 38z"/>
<path d="M10225 7663 c-37 -33 -225 -215 -545 -528 -135 -132 -274 -261 -310
-287 -36 -26 -79 -58 -97 -70 -42 -31 -84 -97 -127 -201 -53 -126 -46 -148 10
-37 68 134 98 168 248 280 43 32 129 107 190 167 62 59 183 176 270 258 127
121 293 301 385 418 22 28 8 29 -24 0z"/>
<path d="M10331 7583 c0 -26 4 -68 8 -93 8 -40 9 -35 10 42 0 48 -3 90 -9 93
-6 4 -10 -12 -9 -42z"/>
<path d="M7180 7609 c0 -5 11 -9 25 -9 14 0 25 2 25 4 0 2 -11 6 -25 8 -14 3
-25 1 -25 -3z"/>
<path d="M6345 7532 c-77 -93 -129 -167 -162 -227 -36 -67 -37 -154 -4 -243
26 -70 35 -77 20 -17 -16 66 -11 172 10 219 10 24 52 94 93 157 105 162 110
170 105 175 -3 3 -30 -26 -62 -64z"/>
<path d="M7415 7570 c11 -5 40 -8 65 -8 l45 0 -40 9 c-22 4 -51 8 -65 8 -23 0
-23 -1 -5 -9z"/>
<path d="M7900 7565 c-34 -14 -34 -14 27 -9 34 2 72 8 85 14 19 7 13 9 -27 9
-27 0 -66 -7 -85 -14z"/>
<path d="M5672 7558 c-16 -21 -42 -76 -42 -89 0 -7 16 5 35 27 19 21 35 47 35
57 0 20 -13 22 -28 5z"/>
<path d="M5695 7495 c-14 -25 -25 -51 -23 -57 2 -6 10 3 17 20 8 18 18 32 23
32 5 0 6 -5 2 -12 -4 -7 -3 -8 4 -4 7 4 17 17 22 29 11 22 11 22 -6 2 -16 -20
-16 -19 -10 8 9 38 2 34 -29 -18z"/>
<path d="M10227 7511 c-16 -77 0 -300 24 -326 6 -6 7 2 4 20 -4 17 -9 100 -13
185 -5 105 -10 144 -15 121z"/>
<path d="M10264 7514 c-9 -37 2 -154 16 -167 9 -9 10 -3 3 28 -4 22 -8 68 -8
103 1 34 0 62 -2 62 -1 0 -6 -12 -9 -26z"/>
<path d="M8720 7524 c0 -4 21 -41 47 -83 53 -87 150 -192 238 -259 68 -52 62
-43 -45 78 -42 47 -109 124 -149 173 -73 87 -91 105 -91 91z"/>
<path d="M6967 7411 c-45 -34 -117 -49 -245 -51 -106 -1 -207 -27 -259 -67
-28 -21 -64 -84 -93 -158 -25 -66 -80 -248 -77 -252 5 -5 63 98 72 128 4 11
10 17 15 14 5 -3 12 0 16 6 4 8 3 9 -4 5 -19 -12 -14 4 33 100 51 103 62 116
125 139 47 18 178 40 186 32 3 -3 -15 -33 -39 -68 -42 -60 -111 -186 -90 -164
5 6 38 56 73 113 34 57 68 109 75 116 8 7 43 16 80 20 72 7 118 31 169 85 38
40 15 41 -37 2z"/>
<path d="M7222 7412 c-15 -2 -22 -9 -20 -20 4 -22 52 -29 239 -35 132 -5 150
-4 129 8 -46 24 -283 56 -348 47z"/>
<path d="M10109 7370 c-12 -30 10 -168 42 -264 18 -55 34 -95 36 -89 2 6 -10
64 -27 130 -16 66 -34 146 -38 179 -4 32 -10 52 -13 44z"/>
<path d="M5417 7353 c-3 -10 -8 -31 -11 -48 -9 -43 -11 -284 -3 -292 4 -3 7
20 8 53 0 32 4 113 8 179 8 120 7 143 -2 108z"/>
<path d="M10066 7316 c-5 -32 -6 -89 -3 -126 6 -72 53 -225 87 -288 12 -20 18
-28 14 -17 -37 107 -76 285 -82 380 l-8 110 -8 -59z"/>
<path d="M7058 7268 c-69 -80 -126 -158 -115 -158 2 0 28 30 57 68 30 37 69
86 88 110 52 64 31 50 -30 -20z"/>
<path d="M7108 7248 c-62 -71 -113 -138 -106 -138 5 0 95 106 151 177 38 48 6
20 -45 -39z"/>
<path d="M7154 7198 c-109 -145 -102 -136 -81 -119 10 8 49 55 86 105 74 99
85 116 77 116 -3 0 -40 -46 -82 -102z"/>
<path d="M7719 7263 c-40 -43 -63 -73 -57 -73 2 0 26 25 52 55 54 63 57 73 5
18z"/>
<path d="M4090 7253 c0 -5 39 -35 85 -68 47 -33 93 -66 103 -72 52 -38 107
-71 236 -142 72 -41 60 -15 -25 50 -117 91 -163 122 -281 184 -101 55 -118 62
-118 48z"/>
<path d="M6939 7227 c-51 -61 -97 -125 -109 -148 -11 -23 -11 -23 5 -4 9 11
23 29 33 40 52 63 112 145 105 144 -4 0 -20 -15 -34 -32z"/>
<path d="M7294 7220 c-14 -21 -24 -44 -22 -49 1 -6 15 12 29 39 32 60 29 65
-7 10z"/>
<path d="M6499 7193 c-51 -66 -102 -143 -95 -143 5 0 98 123 130 173 31 47 11
30 -35 -30z"/>
<path d="M6728 7213 c-29 -45 -50 -83 -45 -83 3 0 51 73 71 108 16 28 -3 9
-26 -25z"/>
<path d="M7216 7176 c-26 -41 -51 -88 -57 -105 l-11 -30 -146 -1 c-173 -2
-173 -2 -322 -30 -163 -31 -177 -41 -45 -35 61 3 124 8 140 10 112 15 243 23
445 26 90 1 80 16 -12 18 -29 1 -48 6 -48 13 0 6 20 45 44 87 56 98 68 121 62
121 -2 0 -25 -33 -50 -74z"/>
<path d="M7848 7218 c-40 -55 -72 -104 -56 -88 20 21 91 120 85 120 -3 0 -16
-15 -29 -32z"/>
<path d="M6801 7205 c-17 -20 -39 -48 -48 -63 -10 -15 -22 -30 -27 -34 -6 -4
-8 -10 -5 -13 5 -5 47 45 107 127 22 31 6 20 -27 -17z"/>
<path d="M7878 7208 c-50 -68 -72 -101 -60 -94 7 4 24 24 37 44 14 21 32 47
41 60 9 12 14 22 11 22 -2 0 -16 -15 -29 -32z"/>
<path d="M6562 7173 c-55 -83 -85 -133 -78 -133 6 0 96 133 117 171 21 39 -2
17 -39 -38z"/>
<path d="M7705 7177 c-22 -29 -32 -46 -22 -38 25 20 80 91 70 91 -4 -1 -26
-24 -48 -53z"/>
<path d="M5458 7200 c-4 -14 -9 -88 -12 -165 l-5 -140 15 95 c14 94 16 261 2
210z"/>
<path d="M8052 7173 c-24 -26 -48 -57 -54 -68 -6 -11 -6 -15 -1 -10 73 77 114
125 108 125 -5 0 -28 -21 -53 -47z"/>
<path d="M3815 7195 c-17 -9 -43 -31 -60 -49 -280 -314 -312 -347 -285 -296 6
12 9 24 6 27 -3 3 -13 -12 -22 -33 -9 -22 -20 -46 -25 -54 -4 -8 -42 -79 -84
-157 -104 -196 -240 -431 -309 -535 -32 -48 -55 -92 -51 -98 14 -22 42 -7 87
48 26 31 66 77 90 103 24 25 110 123 192 218 83 96 155 179 161 185 6 6 55 61
109 121 95 106 202 215 212 215 7 0 -69 -91 -171 -205 -76 -85 -108 -122 -265
-304 -36 -42 -125 -149 -198 -239 -73 -90 -173 -211 -223 -270 -60 -71 -89
-113 -87 -127 5 -32 35 -30 66 7 50 60 306 363 317 374 5 6 69 78 140 159 162
184 364 391 473 484 46 39 86 71 89 71 8 0 -170 -188 -288 -304 -158 -155
-511 -548 -606 -676 -77 -104 -106 -159 -93 -175 7 -8 18 -15 25 -15 21 0 108
93 265 280 80 96 152 181 160 190 8 9 40 45 70 81 30 35 57 66 61 69 3 3 27
30 54 60 108 123 202 227 235 258 65 62 130 114 130 104 0 -26 -123 -170 -287
-336 -275 -278 -542 -593 -629 -741 -21 -36 -23 -47 -13 -62 10 -17 2 -37 -54
-135 -75 -133 -212 -408 -257 -518 l-31 -75 5 60 c3 33 10 116 16 185 6 69 20
211 31 316 24 218 23 242 -4 200 -34 -51 -65 -273 -102 -731 -18 -223 -16
-210 -78 -390 -25 -71 -47 -141 -48 -155 -4 -28 20 -120 30 -120 4 0 17 30 29
68 l22 67 -6 -147 c-5 -120 -3 -157 12 -207 9 -34 20 -64 24 -66 4 -3 15 19
25 48 9 28 23 66 30 82 7 17 30 77 51 135 20 58 45 123 54 145 10 22 34 87 55
145 21 58 48 128 60 155 12 28 32 77 45 110 24 64 76 197 89 230 5 11 17 43
26 70 10 28 23 64 31 80 7 17 31 75 54 130 22 55 45 109 50 120 36 80 50 115
50 124 0 11 37 76 57 101 6 8 60 74 120 145 59 72 124 151 145 175 20 25 98
119 173 210 75 91 144 174 153 185 10 11 30 38 46 60 33 45 191 200 220 216
24 14 -8 -28 -143 -191 -128 -153 -162 -191 -265 -301 -175 -185 -370 -437
-360 -464 3 -7 14 -15 24 -18 22 -6 54 23 111 100 55 74 62 73 24 -5 -37 -75
-58 -152 -49 -176 15 -39 76 -5 144 80 46 58 215 261 227 274 13 13 15 13 24
-2 12 -22 37 -23 64 -3 11 8 64 59 118 113 73 73 97 92 97 76 0 -23 18 -44 37
-44 7 0 46 51 86 113 68 103 211 283 250 316 38 31 13 -18 -82 -159 -106 -158
-126 -205 -96 -226 22 -17 32 -11 84 49 22 27 41 45 41 40 0 -11 -250 -314
-315 -383 -29 -30 -66 -71 -81 -90 -16 -19 -37 -44 -46 -54 -22 -24 -23 -40
-3 -56 19 -16 29 -8 99 69 82 92 327 333 416 411 82 71 78 60 -15 -40 -199
-215 -413 -465 -595 -697 -52 -67 -99 -122 -105 -122 -5 -1 -22 -24 -38 -51
-21 -40 -25 -54 -16 -68 8 -13 6 -47 -10 -137 -19 -117 -38 -277 -81 -695 -25
-248 -68 -422 -220 -890 -55 -168 -118 -363 -140 -435 -23 -71 -46 -141 -51
-154 -8 -19 -6 -28 9 -45 10 -12 34 -38 52 -58 18 -21 37 -38 41 -38 7 0 36
108 60 218 5 23 14 62 19 87 6 25 14 64 19 88 6 23 21 92 36 152 28 119 40
184 55 285 6 36 13 72 16 80 7 16 16 55 38 175 19 95 19 53 1 -129 -8 -83 -21
-232 -30 -331 -42 -470 -45 -498 -77 -600 -38 -124 -40 -157 -12 -169 11 -5
25 -18 30 -30 21 -46 31 -26 42 81 6 59 11 122 11 138 2 58 19 160 49 290 24
103 24 104 5 65 l-17 -35 -4 28 c-2 16 4 87 13 159 13 98 22 135 35 147 9 9
115 139 235 289 120 150 219 271 221 269 2 -2 1 -46 -3 -97 -6 -85 -9 -96 -39
-134 -18 -22 -88 -115 -155 -206 -67 -91 -139 -185 -159 -210 -52 -62 -80
-122 -80 -168 0 -46 15 -65 42 -51 23 12 137 151 250 305 48 66 94 128 103
139 13 18 14 10 9 -85 -5 -81 -12 -117 -31 -158 -27 -59 -27 -89 0 -106 15 -9
23 -4 53 29 20 22 33 33 31 24 -7 -21 11 -39 39 -39 17 0 35 18 71 73 26 39
50 74 53 77 3 3 23 32 45 65 22 33 48 69 59 80 l18 20 -10 -20 c-6 -11 -33
-57 -60 -101 -27 -45 -55 -103 -62 -129 -13 -46 -12 -49 10 -67 l23 -19 -23
-42 c-13 -23 -48 -82 -78 -132 -77 -125 -172 -320 -172 -350 0 -33 26 -43 50
-19 10 10 39 57 64 104 24 47 56 105 70 130 14 25 31 56 38 70 21 43 141 253
165 289 33 49 29 27 -20 -96 -69 -170 -114 -309 -152 -470 -32 -134 -111 -433
-120 -458 -3 -5 -3 37 -1 95 6 149 -9 98 -39 -138 -13 -108 -27 -206 -30 -217
-4 -15 9 -34 54 -79 l59 -58 6 28 c3 16 13 80 21 143 8 62 19 129 24 150 5 20
13 63 16 96 4 33 13 85 20 115 7 30 16 80 19 110 6 50 25 123 45 175 5 11 34
99 65 195 32 96 75 223 96 281 51 139 63 225 39 278 -9 22 -14 42 -11 46 14
13 42 102 42 130 0 17 -7 57 -14 89 -14 57 -13 61 8 95 27 43 59 112 77 163
16 47 0 73 -43 64 -15 -3 -28 -3 -28 -1 0 3 11 27 24 53 14 26 28 64 31 84 8
44 -9 103 -35 121 -21 15 -25 5 51 118 26 38 49 98 49 126 0 13 -12 35 -26 50
-21 21 -32 24 -60 20 l-35 -6 39 47 c109 134 173 230 230 347 50 101 48 118
-13 123 -36 3 -42 -1 -113 -75 -85 -88 -83 -82 9 32 75 93 70 87 154 194 126
160 201 292 184 323 -11 21 -13 21 -59 8 -36 -10 -79 -46 -163 -138 -57 -62
-72 -69 -25 -11 18 22 42 53 53 69 11 15 46 64 78 109 68 94 94 159 77 190
-17 32 -33 26 -95 -36 -63 -65 -61 -59 46 99 102 151 113 172 144 271 16 52
16 60 3 73 -13 14 -19 14 -50 1 -20 -8 -39 -20 -42 -26 -4 -6 -11 -11 -15 -11
-5 0 5 27 22 60 23 44 28 63 20 71 -35 35 -109 -31 -348 -306 -71 -83 -134
-155 -140 -161 -5 -6 -46 -53 -90 -104 -44 -52 -95 -110 -114 -129 -32 -34
-33 -34 -16 -6 18 29 75 105 173 231 26 33 60 78 77 100 16 21 73 91 125 154
112 135 137 169 173 231 37 64 35 97 -5 90 -13 -2 -10 4 27 59 19 29 35 60 35
69 0 20 -19 41 -37 41 -9 0 -228 -175 -263 -210 -3 -3 -18 -16 -34 -30 -44
-37 -23 -7 84 120 210 251 270 343 270 415 0 36 -14 47 -46 34 -12 -4 -68 -62
-125 -128 -56 -67 -108 -121 -113 -121 -8 0 -8 3 0 8 13 9 153 211 212 306 50
81 60 117 38 135 -25 21 -52 4 -100 -62 -51 -70 -136 -166 -136 -152 0 4 7 16
16 26 20 22 37 95 28 121 -3 11 -14 22 -24 26 -17 6 -14 15 31 82 88 134 65
122 227 122 78 0 142 4 142 9 0 11 -21 16 -163 34 -89 11 -123 12 -142 3 -25
-11 -68 -71 -116 -161 -16 -31 -50 -68 -96 -105 -38 -31 -102 -85 -142 -119
-39 -35 -78 -63 -87 -63 -9 0 -42 -26 -75 -57 -33 -32 -60 -53 -59 -48 7 32
-2 57 -25 67 -21 9 -30 7 -63 -15 -43 -30 -52 -33 -52 -14 0 8 -11 24 -25 37
-20 19 -27 21 -40 10 -17 -14 -19 -7 -5 20 13 24 4 48 -21 55 -17 6 -16 10 16
57 39 57 44 96 15 123 -22 20 -16 23 -112 -58 -61 -51 -71 -53 -40 -9 30 43
33 61 17 98 -15 37 -18 39 -46 24 -16 -9 -19 -7 -19 8 0 10 -3 22 -7 26 -4 4
-8 32 -9 63 -2 71 -18 88 -59 68z m-101 -320 c-9 -14 -21 -25 -27 -25 -6 0 0
11 13 25 13 14 25 25 27 25 2 0 -4 -11 -13 -25z m816 -148 c0 -2 -16 -19 -36
-38 -26 -24 -33 -28 -25 -12 12 23 61 64 61 50z m64 -49 c-110 -161 -276 -364
-442 -538 -91 -95 -117 -114 -64 -48 15 19 38 50 52 68 150 199 467 572 479
563 2 -1 -9 -22 -25 -45z m-530 -86 c-16 -20 -122 -131 -235 -247 -216 -219
-278 -288 -420 -470 -155 -199 -239 -331 -239 -376 0 -18 26 -33 41 -23 18 11
7 -16 -76 -180 -47 -92 -105 -215 -129 -274 -24 -59 -68 -165 -98 -237 -31
-71 -75 -182 -98 -245 -23 -63 -48 -131 -55 -150 -43 -113 -75 -204 -75 -216
0 -8 -4 -14 -9 -14 -8 0 -8 21 10 235 15 186 14 185 38 245 12 30 31 82 43
115 11 33 24 64 29 69 5 6 9 17 9 25 0 9 6 27 13 41 7 14 21 48 31 75 17 46
43 110 66 160 5 11 21 49 36 85 25 63 40 95 126 279 22 46 51 93 65 104 14 11
44 44 67 72 22 29 149 177 281 330 132 153 290 338 352 410 110 130 244 256
251 235 2 -6 -9 -27 -24 -48z m199 -134 c-6 -7 -64 -83 -129 -168 -154 -203
-501 -630 -510 -630 -9 0 20 57 57 113 38 56 147 205 159 217 3 3 37 43 76 90
74 88 97 114 143 165 15 17 63 71 106 120 74 84 95 104 104 105 2 0 -1 -6 -6
-12z m671 -480 c-12 -20 -159 -211 -264 -343 -107 -133 -179 -234 -204 -282
-18 -36 -12 -66 13 -61 9 2 117 123 241 270 124 146 252 296 285 333 33 37 63
72 67 78 4 6 10 9 13 5 18 -18 -174 -297 -419 -611 -94 -120 -233 -300 -310
-400 -291 -382 -287 -376 -266 -402 20 -24 33 -18 69 35 66 97 386 483 518
625 10 11 55 62 101 112 45 51 82 88 82 83 0 -5 -15 -27 -33 -47 -18 -21 -80
-96 -138 -167 -57 -71 -152 -189 -210 -261 -163 -202 -540 -706 -556 -743 -15
-35 -5 -62 22 -62 10 0 172 196 265 320 27 37 261 310 320 375 21 22 97 108
170 190 250 283 305 343 308 334 6 -15 -90 -144 -278 -379 -172 -213 -232
-290 -438 -559 -129 -169 -441 -560 -483 -606 -20 -22 -47 -56 -59 -75 l-22
-35 6 50 c12 97 35 321 41 405 3 47 22 216 42 375 19 160 37 328 39 375 5 142
11 165 47 193 43 33 120 114 258 272 243 279 391 445 458 515 52 53 46 44 -45
-74 -38 -49 -88 -114 -112 -145 -120 -155 -472 -663 -472 -681 0 -4 7 -13 15
-20 12 -10 20 -9 42 5 34 23 120 111 142 146 9 14 39 52 66 84 28 32 93 108
145 169 52 61 97 113 100 116 3 3 30 34 60 70 30 36 57 67 60 70 3 3 75 85
159 183 138 160 176 201 155 165z m-110 -1120 c-33 -64 -94 -157 -146 -224
-140 -182 -412 -513 -424 -518 -11 -4 -14 8 -13 62 l2 67 61 70 c33 39 63 72
66 75 3 3 68 75 145 160 76 85 175 192 219 238 45 46 83 87 84 92 2 6 8 10 13
10 5 0 2 -14 -7 -32z m-164 -509 c-47 -93 -196 -306 -279 -398 -47 -53 -103
-117 -124 -141 l-39 -45 7 90 c4 50 9 99 10 111 6 60 411 461 438 435 5 -5 -1
-28 -13 -52z m-460 -231 c-12 -71 -14 -75 -102 -178 -50 -58 -117 -139 -149
-180 -214 -276 -238 -305 -245 -297 -3 3 0 48 6 101 11 87 14 95 30 86 16 -8
26 0 66 53 74 97 105 137 159 203 28 34 58 73 68 86 50 66 171 207 175 203 3
-2 -1 -37 -8 -77z m413 -78 c-18 -74 -224 -420 -328 -550 -30 -37 -66 -85 -80
-105 -30 -45 -31 -38 -13 99 l11 90 86 119 c47 65 100 140 118 166 51 74 65
92 112 145 61 69 84 87 93 73 4 -7 4 -23 1 -37z m-69 -352 c-4 -7 -33 -42 -63
-78 -31 -36 -64 -77 -74 -90 -9 -14 -24 -34 -33 -45 -14 -18 -14 -17 0 10 8
17 34 53 58 82 24 28 58 69 77 92 33 40 50 54 35 29z"/>
<path d="M7774 7188 c-11 -13 -28 -34 -39 -48 l-20 -25 24 20 c23 20 66 75 58
75 -2 0 -12 -10 -23 -22z"/>
<path d="M7979 7183 c-14 -16 -34 -41 -43 -58 l-18 -30 26 30 c31 35 69 85 64
85 -2 0 -15 -12 -29 -27z"/>
<path d="M7398 7187 c-5 -10 -8 -42 -7 -70 0 -45 2 -48 10 -27 6 13 9 45 7 70
-2 31 -5 39 -10 27z"/>
<path d="M7576 7165 c-4 -22 -9 -49 -11 -60 -2 -11 0 -26 4 -34 6 -10 11 4 16
41 9 68 1 110 -9 53z"/>
<path d="M7929 7183 c-13 -16 -12 -17 4 -4 9 7 17 15 17 17 0 8 -8 3 -21 -13z"/>
<path d="M8010 7178 c-12 -22 -12 -22 6 -6 10 10 15 20 12 24 -4 3 -12 -5 -18
-18z"/>
<path d="M8143 7172 c-17 -15 -46 -45 -64 -67 -20 -25 -7 -15 34 25 37 35 67
66 67 67 0 6 -6 2 -37 -25z"/>
<path d="M5503 7080 c-17 -157 -25 -276 -19 -270 9 10 37 278 34 331 -2 45 -5
35 -15 -61z"/>
<path d="M9993 7040 c6 -143 46 -433 63 -449 8 -7 -1 93 -31 377 -12 117 -26
216 -30 220 -4 4 -5 -63 -2 -148z"/>
<path d="M8260 7138 c-54 -64 -67 -88 -21 -38 37 40 66 80 59 80 -2 0 -19 -19
-38 -42z"/>
<path d="M9871 7129 c-1 -72 17 -178 74 -414 44 -185 69 -267 60 -200 -21 154
-44 278 -80 430 -24 99 -46 194 -48 210 -2 17 -5 5 -6 -26z"/>
<path d="M7899 7143 c-13 -16 -12 -17 4 -4 9 7 17 15 17 17 0 8 -8 3 -21 -13z"/>
<path d="M8180 7147 c-8 -7 -24 -24 -35 -37 -12 -15 -4 -11 18 9 33 31 42 42
35 41 -2 0 -10 -6 -18 -13z"/>
<path d="M8295 7098 l-40 -43 43 40 c39 36 47 45 39 45 -2 0 -21 -19 -42 -42z"/>
<path d="M8354 7097 c-41 -48 -46 -60 -9 -24 20 21 35 40 33 42 -3 3 -13 -5
-24 -18z"/>
<path d="M8426 7092 l-19 -27 26 24 c28 26 32 31 20 31 -5 0 -17 -13 -27 -28z"/>
<path d="M8574 7078 l-29 -33 33 29 c30 28 37 36 29 36 -2 0 -16 -15 -33 -32z"/>
<path d="M8515 7079 c-4 -6 -5 -12 -2 -15 2 -3 7 2 10 11 7 17 1 20 -8 4z"/>
<path d="M9723 6934 c3 -87 13 -199 22 -249 18 -100 59 -284 75 -330 9 -27 9
-26 6 15 -3 25 -14 110 -26 190 -40 279 -60 435 -60 477 0 23 -5 45 -12 49 -8
5 -10 -32 -5 -152z"/>
<path d="M5556 7013 c-9 -66 -20 -313 -13 -313 5 0 23 174 31 293 4 76 -8 91
-18 20z"/>
<path d="M9813 6905 c6 -146 52 -544 64 -555 3 -3 3 63 -1 145 -8 178 -47 540
-60 552 -5 5 -6 -55 -3 -142z"/>
<path d="M8295 7020 c-4 -6 -62 -8 -163 -4 -149 7 -360 -2 -348 -13 3 -3 56
-9 118 -14 370 -25 449 -30 584 -33 82 -2 158 0 168 4 18 6 -253 40 -323 40
-25 0 -32 4 -27 15 6 17 0 20 -9 5z"/>
<path d="M9026 6983 c-9 -55 -7 -176 3 -191 13 -21 22 45 20 143 -2 89 -12
111 -23 48z"/>
<path d="M7120 6961 c-51 -9 -27 -18 70 -26 47 -4 92 -11 101 -16 17 -9 172
-32 204 -31 11 1 99 5 195 9 171 8 174 9 130 23 -62 19 -202 18 -271 -3 -55
-17 -56 -17 -121 7 -39 15 -107 29 -168 36 -56 5 -103 9 -104 9 0 -1 -17 -4
-36 -8z"/>
<path d="M7488 6963 c12 -2 30 -2 40 0 9 3 -1 5 -23 4 -22 0 -30 -2 -17 -4z"/>
<path d="M5645 6874 c-4 -44 -9 -88 -11 -99 -4 -18 -4 -18 6 -3 14 23 31 161
20 172 -4 4 -11 -27 -15 -70z"/>
<path d="M6521 6926 c-23 -12 -39 -25 -35 -29 4 -3 15 -2 24 3 34 18 76 14
121 -12 157 -92 242 -120 444 -148 44 -6 109 -15 145 -20 79 -11 278 -29 381
-35 42 -2 105 -8 140 -13 69 -10 197 -9 294 3 33 3 76 8 96 10 52 6 244 56
284 74 11 5 41 17 68 26 26 9 74 34 106 56 34 22 71 39 87 39 16 0 36 5 44 10
11 7 -2 10 -43 10 -45 0 -69 -6 -102 -25 -44 -27 -112 -49 -270 -91 -282 -75
-359 -78 -900 -29 -247 22 -533 70 -600 100 -205 92 -230 98 -284 71z"/>
<path d="M5681 6873 c-13 -57 -43 -285 -38 -290 7 -6 27 102 42 217 7 63 12
116 10 118 -1 2 -8 -19 -14 -45z"/>
<path d="M5840 6893 c0 -19 106 -100 117 -90 6 7 -43 51 -88 80 -16 11 -29 15
-29 10z"/>
<path d="M9631 6675 c-1 -181 14 -371 40 -510 13 -67 33 -112 24 -55 -4 33 -7
80 -20 320 -3 58 -8 114 -10 125 -2 11 -7 76 -11 145 -10 197 -23 184 -23 -25z"/>
<path d="M5711 6774 c-6 -32 -10 -112 -9 -178 0 -67 3 -107 5 -91 5 52 21 320
18 323 -1 1 -7 -23 -14 -54z"/>
<path d="M6680 6810 c15 -28 129 -147 130 -135 0 14 -118 155 -131 155 -6 0
-6 -7 1 -20z"/>
<path d="M6439 6764 c-39 -68 -47 -130 -29 -223 11 -61 11 -72 -10 -136 -12
-39 -26 -83 -30 -100 -4 -16 -21 -80 -38 -140 -28 -102 -69 -284 -78 -345 -7
-50 83 237 112 355 8 33 19 76 24 95 4 19 12 60 15 90 4 30 12 66 17 79 8 23
9 23 24 5 15 -19 15 -19 10 1 -25 104 -23 217 5 303 12 35 19 66 16 68 -3 3
-20 -21 -38 -52z"/>
<path d="M6115 6781 c-5 -16 -15 -63 -40 -186 -6 -28 -5 -28 19 11 18 29 27
61 32 117 6 74 2 98 -11 58z"/>
<path d="M8762 6757 c-21 -25 -33 -118 -57 -427 l-5 -65 18 55 c28 82 50 192
62 313 11 110 5 152 -18 124z"/>
<path d="M8445 6729 c-57 -29 -195 -123 -195 -132 0 -13 102 43 173 95 58 44
75 58 64 58 -1 0 -20 -9 -42 -21z"/>
<path d="M5797 6720 c-4 -14 -9 -70 -12 -125 l-4 -100 15 105 c15 109 16 168
1 120z"/>
<path d="M9429 6700 c-1 -25 -4 -58 -6 -75 -7 -58 -15 -780 -9 -774 23 22 46
846 25 881 -6 8 -9 -3 -10 -32z"/>
<path d="M9366 6703 c-16 -83 -23 -365 -16 -663 2 -108 3 -111 11 -55 4 33 11
92 14 130 6 81 7 606 1 612 -2 3 -7 -8 -10 -24z"/>
<path d="M9501 6655 c-6 -36 -16 -120 -21 -187 -10 -133 -14 -635 -4 -626 5 6
20 178 29 338 6 115 16 540 12 540 -2 0 -9 -29 -16 -65z"/>
<path d="M5831 6653 c-15 -76 -31 -192 -30 -223 1 -47 18 27 35 153 17 127 14
164 -5 70z"/>
<path d="M6192 6683 c-59 -158 -125 -525 -121 -680 l1 -48 9 55 c14 97 41 243
55 306 8 33 14 69 14 80 0 10 6 48 14 84 21 96 44 225 41 228 -1 1 -7 -10 -13
-25z"/>
<path d="M8568 6659 c-15 -8 -88 -103 -88 -114 0 -17 21 1 50 43 19 26 41 52
50 59 19 15 10 25 -12 12z"/>
<path d="M5886 6623 c-11 -52 -26 -208 -25 -258 l1 -50 8 40 c17 87 36 295 27
295 -3 0 -8 -12 -11 -27z"/>
<path d="M6222 6550 c-13 -58 -28 -125 -34 -150 -9 -43 -22 -321 -13 -290 2 8
11 67 20 130 8 63 24 173 35 244 27 166 22 202 -8 66z"/>
<path d="M6311 6488 c-49 -148 -104 -358 -121 -463 -5 -27 -11 -62 -15 -77 -5
-18 -3 -28 4 -28 6 0 11 9 11 20 0 11 14 68 31 127 17 60 33 117 36 128 2 11
8 29 13 40 21 51 103 395 96 403 -2 2 -27 -66 -55 -150z"/>
<path d="M7450 6609 c0 -15 7 -29 15 -33 18 -7 18 2 0 34 l-14 25 -1 -26z"/>
<path d="M9001 6560 c8 -54 55 -167 65 -157 8 8 -55 207 -65 207 -5 0 -4 -23
0 -50z"/>
<path d="M7532 6580 c0 -14 2 -19 5 -12 2 6 2 18 0 25 -3 6 -5 1 -5 -13z"/>
<path d="M5942 6513 c-12 -42 -43 -261 -41 -296 2 -39 18 40 39 188 10 77 18
141 16 142 -2 2 -8 -14 -14 -34z"/>
<path d="M7020 6541 c0 -12 97 -57 141 -66 43 -8 27 5 -56 46 -62 30 -85 35
-85 20z"/>
<path d="M6070 6529 c0 -2 -13 -63 -29 -134 -16 -72 -32 -157 -36 -190 -4 -33
-12 -69 -16 -80 -10 -22 -5 40 17 210 17 134 17 157 -1 85 -23 -93 -38 -243
-31 -304 4 -32 10 -56 12 -53 4 4 37 129 63 242 15 68 33 216 26 223 -3 3 -5
3 -5 1z"/>
<path d="M9291 6472 c-31 -112 -72 -644 -70 -891 l2 -136 22 200 c29 265 44
453 51 660 3 94 7 178 10 188 3 9 3 17 0 17 -3 0 -10 -17 -15 -38z"/>
<path d="M8005 6474 c-38 -7 -95 -17 -125 -23 -147 -27 -183 -31 -295 -31 -66
0 -157 5 -202 11 -86 12 -150 3 -83 -12 19 -4 55 -13 80 -19 86 -22 235 -40
293 -35 69 5 196 35 298 70 41 14 82 27 93 30 23 5 30 12 19 17 -4 3 -39 -1
-78 -8z"/>
<path d="M5714 6333 c17 -48 163 -348 210 -431 19 -34 53 -93 74 -130 22 -37
70 -123 106 -191 85 -157 170 -275 243 -338 62 -53 113 -87 113 -77 0 3 -33
41 -72 84 -76 80 -178 234 -266 402 -29 53 -80 146 -115 205 -35 59 -101 173
-147 253 -113 197 -151 260 -155 260 -2 0 2 -17 9 -37z"/>
<path d="M7006 6279 c-14 -11 -26 -25 -26 -31 0 -6 9 -3 20 7 24 21 96 18 288
-14 76 -13 152 -19 217 -17 216 6 216 9 -1 36 -379 49 -456 52 -498 19z"/>
<path d="M6343 6032 c-74 -263 -81 -295 -87 -397 -4 -67 -4 -73 4 -35 25 116
33 151 56 230 13 47 29 103 35 125 6 22 15 51 19 65 13 40 43 220 38 225 -2 3
-32 -93 -65 -213z"/>
<path d="M5483 6155 c-37 -94 -93 -309 -118 -450 -21 -122 -48 -231 -74 -309
-31 -89 -77 -264 -111 -426 -33 -154 -100 -539 -100 -573 0 -48 10 -15 86 273
20 74 39 151 44 170 18 73 28 105 29 94 1 -5 -10 -111 -24 -235 -13 -123 -31
-316 -39 -429 -13 -178 -28 -297 -51 -428 -5 -25 -10 -32 -22 -28 -12 5 -13 2
-7 -11 5 -10 8 -58 8 -108 l-2 -90 17 67 16 68 71 -78 c80 -87 194 -189 194
-174 0 19 -89 127 -172 211 l-84 83 13 67 c7 36 18 87 23 114 6 26 14 70 19
97 6 28 13 59 16 70 3 11 11 43 16 72 5 29 14 73 20 98 6 25 13 62 16 83 3 20
9 40 14 42 4 3 6 -108 3 -247 -3 -142 -1 -266 4 -283 7 -24 10 -9 16 80 4 61
14 164 22 230 8 66 19 183 24 260 6 77 15 203 20 280 6 77 17 169 26 205 8 36
20 88 26 115 5 28 14 66 18 85 10 37 35 156 51 230 10 50 34 163 49 228 28
119 33 139 40 162 4 14 16 52 25 85 20 73 46 146 55 160 4 6 12 26 19 45 19
56 -11 19 -53 -67 -55 -109 -103 -242 -152 -418 -65 -234 -64 -231 -58 -150 2
39 6 120 9 180 4 116 17 232 34 305 29 126 41 190 41 210 0 12 5 30 11 41 5
11 9 32 7 47 -3 22 -9 11 -35 -53z m-158 -1086 c-15 -144 -61 -428 -72 -439
-6 -6 5 95 23 215 29 188 53 361 54 374 0 8 2 12 5 9 3 -3 -1 -75 -10 -159z"/>
<path d="M7842 6200 c-56 -13 -46 -17 58 -22 55 -3 103 -8 106 -11 10 -10 -28
-62 -90 -120 -49 -47 -55 -55 -31 -45 56 23 111 66 153 121 64 83 61 87 -60
86 -57 -1 -118 -5 -136 -9z"/>
<path d="M7520 6143 c-23 -27 -57 -72 -76 -100 -32 -51 -36 -53 -77 -53 -24 0
-47 3 -51 7 -3 4 -28 8 -54 10 l-47 3 35 -16 c138 -63 286 -79 438 -45 45 10
84 20 87 23 3 2 -74 4 -170 4 -95 0 -177 3 -181 7 -6 5 27 52 129 183 32 41
10 26 -33 -23z"/>
<path d="M9753 6128 c-55 -71 -110 -158 -124 -197 -8 -24 -6 -23 22 9 30 34
123 171 148 218 25 46 3 32 -46 -30z"/>
<path d="M9895 6153 c-81 -93 -160 -203 -242 -338 -79 -132 -97 -166 -81 -159
26 11 233 312 332 482 28 49 26 53 -9 15z"/>
<path d="M7174 6148 c-23 -27 -56 -78 -50 -78 2 0 20 23 40 50 38 53 42 64 10
28z"/>
<path d="M7315 6140 c-16 -16 -26 -32 -24 -34 3 -3 17 10 32 29 34 43 30 45
-8 5z"/>
<path d="M7589 6109 c-35 -34 -55 -55 -44 -48 28 20 121 109 114 109 -4 0 -35
-28 -70 -61z"/>
<path d="M6531 6158 c-1 -4 9 -28 21 -53 16 -33 28 -45 44 -45 15 0 39 -19 71
-57 26 -31 99 -111 161 -177 61 -67 110 -126 108 -133 -6 -14 34 -25 48 -14 6
5 48 12 93 16 49 4 80 11 77 17 -3 5 -22 7 -43 4 -20 -3 -61 -8 -93 -11 l-56
-6 -55 74 c-58 78 -176 216 -239 281 -27 26 -45 37 -58 33 -19 -5 -34 8 -67
59 -6 11 -12 16 -12 12z"/>
<path d="M7383 6103 c-57 -67 -81 -106 -31 -52 18 21 40 45 48 56 8 10 21 26
29 36 7 9 11 17 9 17 -3 0 -27 -26 -55 -57z"/>
<path d="M7667 6079 c-45 -45 -57 -60 -27 -33 91 81 125 114 117 114 -4 0 -45
-37 -90 -81z"/>
<path d="M7063 6143 c-15 -5 -17 -23 -4 -23 5 0 11 7 15 15 3 8 4 15 3 14 -1
0 -8 -3 -14 -6z"/>
<path d="M7224 6118 l-19 -23 23 19 c21 18 27 26 19 26 -2 0 -12 -10 -23 -22z"/>
<path d="M7876 6082 l-19 -27 24 22 c12 12 21 24 18 27 -2 2 -13 -8 -23 -22z"/>
<path d="M9906 6082 c-27 -44 -96 -497 -116 -767 -6 -82 -15 -202 -21 -265 -5
-63 -16 -214 -24 -335 -19 -281 -30 -416 -49 -590 -23 -208 -63 -508 -70 -525
-3 -8 -10 -44 -15 -80 -9 -65 -28 -169 -56 -310 -8 -41 -22 -113 -30 -160 -41
-225 -27 -196 -150 -322 -128 -131 -362 -381 -484 -518 -47 -52 -89 -97 -94
-99 -4 -1 -1 13 7 33 9 20 23 53 32 74 33 81 52 124 99 227 55 120 60 132 106
240 53 126 80 198 75 202 -17 17 -202 -335 -306 -582 -76 -181 -96 -228 -110
-260 -5 -11 -15 -36 -23 -55 -8 -19 -49 -77 -93 -129 -102 -122 -213 -273
-214 -289 0 -7 48 41 108 107 59 65 109 117 111 115 8 -8 -37 -96 -175 -339
-196 -347 -236 -421 -308 -570 -35 -71 -77 -159 -95 -194 -17 -36 -29 -66 -27
-69 3 -2 28 5 57 15 47 16 55 23 83 77 23 45 39 62 66 74 19 8 67 29 105 47
39 18 81 36 95 40 14 4 43 16 65 26 22 9 90 38 150 64 133 56 220 93 260 111
17 7 134 58 260 113 465 202 459 199 515 266 28 33 47 61 42 63 -4 1 -69 -25
-143 -59 -315 -144 -310 -133 14 32 201 102 227 118 279 173 32 34 57 65 58
69 0 12 -36 -1 -132 -49 -49 -25 -88 -40 -88 -35 0 4 21 25 48 45 132 103 685
656 670 671 -2 2 -26 -14 -54 -36 -218 -179 -494 -440 -709 -670 -65 -70 -83
-82 -245 -166 -225 -117 -497 -264 -675 -365 -179 -102 -294 -167 -370 -208
-33 -18 -75 -41 -92 -52 -45 -27 -42 -12 16 91 27 47 82 154 121 236 167 347
139 304 310 476 85 86 229 223 320 305 90 82 207 190 260 239 52 50 138 131
190 180 52 50 140 133 195 186 55 52 127 120 160 150 33 30 62 57 65 60 3 3
32 30 65 59 33 30 71 67 85 84 l25 30 -30 -20 c-32 -20 -146 -108 -305 -233
-109 -86 -441 -375 -575 -501 -130 -122 -422 -414 -489 -490 -57 -64 -59 -63
-26 15 9 22 23 55 31 74 44 106 60 127 215 284 180 181 279 291 469 520 101
121 131 153 137 139 5 -13 7 -10 7 9 1 18 26 59 71 115 39 49 70 93 70 99 0 5
-25 -15 -55 -45 l-54 -54 5 40 c3 21 10 50 14 64 10 27 28 110 41 180 35 197
82 441 90 467 5 17 18 101 29 185 23 187 37 262 50 266 6 2 47 34 92 70 164
135 277 228 340 282 148 127 431 361 528 438 218 171 285 222 293 222 15 0
-57 -92 -93 -118 -304 -225 -742 -592 -937 -784 -136 -134 -232 -262 -216
-287 21 -32 63 -13 167 77 56 48 126 107 156 132 221 180 506 439 757 687 145
143 230 218 300 266 99 67 133 85 133 72 0 -7 -209 -233 -253 -274 -12 -11
-62 -50 -112 -87 -252 -187 -695 -564 -875 -744 -127 -127 -176 -230 -109
-230 28 0 84 42 280 211 268 231 422 373 709 653 90 89 178 170 195 181 105
70 332 195 368 202 32 6 36 -11 13 -55 -26 -49 -417 -422 -566 -541 -112 -89
-376 -309 -440 -367 -140 -127 -475 -443 -538 -507 -81 -82 -90 -110 -36 -115
27 -3 44 10 150 115 118 117 244 230 244 219 0 -3 -50 -56 -111 -118 -252
-255 -494 -521 -494 -541 0 -47 35 -27 159 92 68 67 127 121 130 121 3 0 1
-12 -5 -27 -12 -33 5 -73 31 -73 24 0 195 129 380 286 175 148 256 217 280
237 75 65 251 218 384 335 203 179 463 339 676 417 132 48 150 53 150 46 0
-20 -67 -95 -186 -211 -109 -106 -149 -137 -254 -199 -147 -87 -517 -335 -639
-429 -298 -228 -578 -487 -695 -644 -47 -62 -57 -82 -52 -103 7 -29 44 -42 74
-26 11 6 58 39 104 73 46 35 121 90 167 123 127 91 416 327 565 460 6 6 67 59
136 119 69 61 132 117 141 125 17 17 37 35 178 161 47 41 109 98 140 127 51
47 281 183 310 183 28 0 5 -44 -68 -131 -127 -151 -198 -221 -331 -325 -378
-295 -923 -800 -1098 -1016 -66 -83 -73 -101 -43 -118 34 -18 67 5 215 144 77
73 186 173 241 222 55 49 107 96 115 104 159 149 404 384 555 532 104 102 191
185 192 184 7 -6 -40 -88 -83 -146 -26 -36 -134 -173 -239 -305 -177 -222
-348 -442 -535 -689 -41 -54 -113 -142 -160 -195 -152 -172 -227 -278 -210
-295 12 -12 144 114 253 244 94 111 227 241 357 348 155 129 265 236 246 240
-23 5 -93 -38 -184 -112 -42 -34 -84 -66 -92 -71 -19 -11 9 31 72 111 26 32
141 177 255 320 115 144 222 279 238 299 97 122 150 223 158 306 3 28 21 56
82 125 103 118 133 164 141 213 11 69 -29 89 -109 56 -56 -23 -55 -19 4 43 76
78 99 114 99 155 0 46 -20 61 -73 54 -43 -6 -211 -74 -347 -141 l-75 -37 101
103 c99 100 204 235 204 261 0 38 -57 49 -101 19 -14 -9 -55 -36 -90 -59 -126
-83 -288 -201 -414 -302 -121 -96 -158 -123 -144 -104 20 28 357 323 419 368
40 28 54 53 39 71 -6 8 -18 14 -27 14 -9 0 7 23 40 58 75 78 100 129 92 184
-4 24 -11 48 -16 55 -14 18 -97 -10 -218 -75 l-105 -55 43 47 c55 60 72 100
61 140 -16 54 -37 53 -132 -7 -90 -58 -95 -60 -90 -33 6 28 -19 49 -56 49 -32
0 -250 -160 -514 -375 -52 -43 -97 -78 -101 -78 -4 0 105 103 241 230 137 126
256 241 266 255 10 14 24 43 32 65 12 35 12 41 -1 55 -9 8 -18 15 -20 15 -23
0 -132 -71 -239 -154 -178 -140 -182 -141 -77 -35 91 94 103 114 80 137 -16
16 -33 15 -50 -1 -15 -14 -243 -215 -333 -294 -102 -88 -209 -173 -218 -173
-9 0 92 111 369 405 160 169 179 195 169 224 -9 31 -32 32 -67 4 -34 -28 -235
-209 -253 -227 -51 -54 -295 -262 -295 -251 0 14 193 224 314 343 69 67 126
128 126 135 0 19 -21 37 -43 37 -10 0 -51 -27 -90 -61 -85 -71 -205 -155 -212
-147 -4 4 144 182 165 198 3 3 19 22 34 42 23 30 25 40 16 57 -20 38 -35 32
-190 -84 -127 -95 -190 -138 -196 -132 -5 5 125 154 190 217 48 46 56 69 32
90 -18 14 -39 4 -115 -52 -57 -42 -62 -39 -26 14 28 42 33 95 10 104 -10 4
-13 13 -9 26 7 23 -12 49 -32 41 -18 -7 -18 7 0 33 21 29 5 49 -30 40 -84 -21
-88 -21 -81 5 4 13 10 63 14 112 5 80 3 101 -11 79z m40 -280 c-20 -27 -36
-60 -36 -73 0 -13 -5 -31 -11 -39 -7 -11 -8 9 -3 65 3 44 8 82 11 85 2 2 16 6
31 8 15 2 29 5 31 8 2 2 6 2 9 -1 2 -2 -12 -26 -32 -53z m-13 -162 c10 0 17
-3 15 -7 -7 -18 -64 -92 -69 -93 -7 0 -1 84 7 109 4 11 7 12 16 3 7 -7 20 -12
31 -12z m-21 -180 c16 0 14 -7 -14 -45 -18 -24 -36 -44 -40 -45 -6 0 0 72 8
99 4 11 7 12 16 3 7 -7 20 -12 30 -12z m129 -156 c-13 -17 -21 -41 -21 -65 0
-40 4 -43 67 -51 19 -3 8 -19 -82 -128 -125 -149 -144 -182 -126 -204 30 -36
116 -12 183 52 54 50 37 15 -25 -54 -85 -95 -109 -130 -105 -157 3 -20 8 -22
52 -19 27 1 55 7 63 14 7 6 16 8 19 5 3 -3 -35 -51 -84 -106 -139 -154 -163
-187 -156 -205 15 -39 64 -14 171 86 172 161 366 339 478 438 238 212 494 409
310 239 -379 -350 -546 -509 -772 -733 -145 -143 -265 -257 -267 -255 -3 3 6
99 19 214 25 217 46 455 50 560 2 33 8 101 14 150 6 50 11 112 11 139 0 42 2
47 18 41 31 -13 64 -6 126 29 74 42 83 44 57 10z m1599 -554 c0 -31 -444 -446
-589 -550 -173 -123 -455 -342 -601 -464 -460 -388 -475 -387 -60 5 430 406
859 761 1159 961 96 64 91 62 91 48z m-1120 -168 c0 -9 -431 -391 -458 -406
-31 -17 3 17 110 111 55 48 155 136 222 195 66 59 122 108 124 108 1 0 2 -3 2
-8z m40 -165 c0 -11 -424 -390 -464 -416 -31 -20 55 61 268 251 177 157 196
173 196 165z m694 -460 c-296 -267 -505 -450 -632 -555 -171 -141 -438 -342
-454 -342 -21 0 137 172 273 296 169 155 393 335 559 449 47 32 132 91 190
131 58 40 107 70 109 68 2 -2 -18 -23 -45 -47z m-285 -599 c-128 -123 -311
-290 -294 -268 41 51 319 310 333 310 3 0 -14 -19 -39 -42z m-2730 -2522 c-15
-13 -49 -25 -49 -17 0 5 8 12 18 14 24 6 36 8 31 3z"/>
<path d="M8760 6051 c-160 -67 -294 -149 -470 -285 -41 -32 -96 -74 -122 -94
-27 -20 -48 -40 -48 -44 0 -10 172 99 310 197 122 87 231 156 318 202 48 25
89 48 91 50 12 9 -21 -1 -79 -26z"/>
<path d="M9694 5956 c-96 -121 -175 -239 -173 -260 0 -6 8 0 17 14 9 13 38 49
63 80 48 58 151 204 162 230 4 8 14 25 23 38 9 12 14 22 11 22 -3 0 -49 -56
-103 -124z"/>
<path d="M7754 6048 l-19 -23 23 19 c21 18 27 26 19 26 -2 0 -12 -10 -23 -22z"/>
<path d="M10026 6032 c21 -16 57 -50 79 -77 200 -243 341 -385 386 -385 14 0
34 7 45 15 37 28 55 22 290 -91 126 -60 113 -40 -34 52 -181 114 -234 133
-274 97 -28 -25 -51 -8 -234 184 -163 170 -238 233 -277 233 -15 0 -11 -7 19
-28z"/>
<path d="M6546 5978 c-12 -59 -67 -227 -77 -233 -5 -4 -9 -15 -9 -25 0 -11
-20 -81 -45 -156 -48 -145 -59 -204 -22 -114 52 123 71 166 78 175 4 6 12 29
18 50 5 22 15 58 21 80 28 99 55 243 47 251 -2 3 -7 -10 -11 -28z"/>
<path d="M2960 5970 c0 -5 5 -10 11 -10 5 0 7 5 4 10 -3 6 -8 10 -11 10 -2 0
-4 -4 -4 -10z"/>
<path d="M5730 5972 c0 -31 142 -280 170 -297 15 -9 -72 164 -118 235 -44 68
-52 78 -52 62z"/>
<path d="M6416 5872 c-54 -115 -87 -240 -85 -317 l1 -40 8 35 c33 148 41 176
84 294 20 55 34 101 33 103 -2 2 -20 -32 -41 -75z"/>
<path d="M9195 5929 c-9 -13 -39 -297 -55 -499 -8 -112 -15 -159 -26 -172 -34
-37 -164 -114 -292 -173 -76 -35 -166 -79 -202 -97 -57 -30 -201 -88 -217 -88
-3 0 0 7 7 15 11 14 10 14 -11 6 -13 -5 -76 -35 -139 -66 -224 -111 -295 -126
-473 -97 -101 16 -340 16 -384 0 -28 -10 -49 -8 -135 11 -55 12 -108 27 -117
31 -58 31 -238 111 -306 135 -27 10 -54 21 -60 25 -5 4 -50 21 -100 40 -49 18
-121 46 -158 62 -71 31 -90 32 -60 6 25 -23 236 -131 308 -158 96 -36 164 -65
305 -128 25 -11 65 -27 88 -34 23 -7 42 -16 42 -20 0 -11 -31 -4 -344 74 -153
38 -281 67 -284 64 -6 -6 43 -26 63 -26 8 0 16 -4 20 -9 3 -5 20 -13 37 -17
18 -3 39 -10 48 -15 20 -11 182 -59 201 -59 7 0 27 -7 42 -15 27 -14 53 -20
132 -30 22 -2 74 -9 115 -15 466 -62 582 -60 760 10 30 12 82 32 115 45 33 12
89 34 125 48 89 34 262 97 280 101 15 4 427 202 485 233 49 27 125 86 199 154
145 133 158 148 285 303 30 35 -8 12 -61 -39 -44 -42 -136 -124 -255 -229 -29
-25 -35 -19 -23 26 19 66 40 272 46 428 3 85 7 161 9 168 5 15 -1 16 -10 1z
m-1331 -1217 c12 -21 -119 -28 -274 -15 -63 5 -76 9 -50 13 68 10 318 12 324
2z"/>
<path d="M8762 5888 c-7 -24 -38 -119 -68 -213 -67 -209 -105 -369 -110 -455
-3 -69 -2 -68 27 40 5 19 28 98 50 175 82 284 132 495 117 495 -2 0 -9 -19
-16 -42z"/>
<path d="M9782 5897 c-16 -31 -96 -279 -167 -512 -51 -169 -69 -227 -90 -285
-13 -36 -33 -93 -45 -128 -31 -96 -103 -254 -210 -465 -95 -188 -131 -274
-204 -489 -36 -107 -42 -133 -28 -124 15 9 122 233 122 255 0 6 5 11 10 11 6
0 10 7 10 16 0 17 24 70 172 374 49 102 94 194 98 205 5 11 18 43 30 70 11 28
24 57 29 65 5 9 12 31 16 50 4 19 11 40 15 45 3 6 15 37 24 70 10 33 21 69 26
80 14 34 40 127 40 141 0 8 4 22 9 32 5 9 15 37 21 62 7 25 19 64 26 87 7 23
16 52 18 65 3 13 26 106 51 207 25 101 44 185 42 187 -2 2 -9 -6 -15 -19z"/>
<path d="M8856 5873 c-7 -40 -40 -242 -57 -353 -5 -36 -12 -74 -16 -85 -4 -11
-6 -27 -4 -37 1 -9 -5 -69 -14 -134 -18 -144 -18 -168 1 -89 8 33 19 76 23 95
35 137 67 358 77 523 7 117 3 150 -10 80z"/>
<path d="M6612 5853 c-5 -21 -24 -94 -42 -163 -18 -69 -36 -129 -40 -135 -4
-5 -10 -35 -14 -67 -3 -31 -12 -83 -20 -115 -33 -131 -26 -148 12 -33 50 148
96 346 118 503 8 56 0 62 -14 10z"/>
<path d="M8632 5792 c-51 -205 -122 -503 -137 -574 -19 -85 -15 -129 5 -58 6
25 15 50 20 55 4 6 10 24 13 40 2 17 18 75 34 130 17 55 37 134 46 175 18 85
50 310 44 316 -2 2 -13 -36 -25 -84z"/>
<path d="M7217 5843 c-11 -10 -8 -63 3 -63 6 0 10 16 10 35 0 36 -2 40 -13 28z"/>
<path d="M8955 5548 c-39 -155 -72 -289 -73 -298 -3 -10 -1 -12 6 -5 5 6 24
55 41 110 18 55 36 109 41 120 11 27 49 200 55 255 3 25 8 57 10 73 3 15 1 27
-3 27 -4 0 -39 -127 -77 -282z"/>
<path d="M8456 5765 c-10 -33 -37 -123 -61 -200 -53 -171 -115 -424 -114 -462
0 -15 2 -23 4 -18 2 6 12 39 23 75 11 36 38 124 61 195 65 210 116 420 109
453 -2 9 -12 -10 -22 -43z"/>
<path d="M6780 5783 c-7 -16 -32 -75 -57 -133 -24 -58 -50 -118 -58 -135 -7
-16 -21 -55 -31 -85 -9 -30 -21 -60 -27 -67 -5 -7 -10 -25 -12 -40 -2 -15 -10
-57 -19 -93 -8 -36 -15 -72 -16 -79 0 -28 16 4 29 54 6 27 18 63 26 80 7 16
18 44 23 60 6 17 20 55 32 85 83 217 158 454 110 353z"/>
<path d="M7542 5785 c0 -16 2 -22 5 -12 2 9 2 23 0 30 -3 6 -5 -1 -5 -18z"/>
<path d="M7726 5785 c-3 -9 -6 -22 -5 -28 0 -7 5 -1 10 12 5 13 8 26 5 28 -2
2 -6 -3 -10 -12z"/>
<path d="M8525 5705 c-63 -218 -137 -599 -134 -688 1 -31 2 -30 10 8 8 40 23
109 40 175 55 229 118 560 105 560 -3 0 -12 -25 -21 -55z"/>
<path d="M7712 5720 c0 -14 2 -19 5 -12 2 6 2 18 0 25 -3 6 -5 1 -5 -13z"/>
<path d="M5700 5709 c0 -6 40 -131 90 -277 49 -147 110 -347 135 -446 79 -313
104 -389 277 -846 40 -107 98 -274 128 -370 30 -96 56 -165 58 -153 3 23 -58
283 -88 373 -11 30 -33 93 -50 140 -151 413 -189 524 -206 604 -2 10 -8 33
-13 50 -5 17 -19 76 -31 131 -57 264 -119 452 -215 651 -68 143 -85 171 -85
143z"/>
<path d="M5986 5660 c15 -60 105 -213 111 -193 6 16 -61 151 -93 189 -24 28
-25 28 -18 4z"/>
<path d="M6915 5620 c-19 -30 -149 -529 -141 -537 3 -3 9 10 15 29 5 18 19 60
31 93 28 82 66 217 80 290 7 33 15 77 20 98 7 37 6 45 -5 27z"/>
<path d="M7755 5601 c11 -5 49 -12 85 -15 36 -4 77 -9 92 -12 l27 -5 -29 -67
c-63 -150 -86 -268 -94 -492 -6 -158 5 -138 28 50 24 194 48 313 96 473 l11
37 102 1 c103 0 110 11 15 23 -82 10 -353 16 -333 7z"/>
<path d="M5551 5530 c-25 -81 -94 -370 -116 -490 -18 -95 -55 -458 -54 -525 1
-47 1 -48 11 -20 6 17 14 53 19 80 5 28 15 86 23 130 9 44 20 107 25 140 6 33
18 96 26 140 37 182 44 223 53 295 6 41 18 120 27 174 22 138 16 172 -14 76z"/>
<path d="M7235 5548 c-37 -92 -107 -307 -140 -433 -57 -217 -44 -198 45 65 35
102 67 199 71 215 4 17 17 65 29 109 24 88 21 109 -5 44z"/>
<path d="M7414 5453 c-133 -282 -195 -450 -208 -563 l-6 -45 14 35 c8 19 23
64 34 100 11 36 37 101 57 145 20 44 40 89 45 100 59 132 136 345 124 345 -3
0 -30 -53 -60 -117z"/>
<path d="M8271 5541 c-12 -22 -45 -166 -60 -266 -14 -90 -22 -255 -12 -255 7
0 17 63 46 292 8 65 21 147 29 183 14 68 13 78 -3 46z"/>
<path d="M7671 5485 c-81 -124 -171 -299 -234 -455 -84 -210 -37 -131 167 280
31 63 70 141 87 174 16 32 28 60 26 62 -2 2 -22 -26 -46 -61z"/>
<path d="M8023 5428 c-64 -185 -143 -518 -123 -518 3 0 12 21 19 48 6 26 16
61 21 77 5 17 30 111 55 210 25 99 51 196 57 216 6 20 9 42 7 48 -3 7 -19 -30
-36 -81z"/>
<path d="M8185 5443 c-77 -162 -132 -332 -139 -433 -3 -36 -3 -54 0 -40 10 46
147 455 179 533 4 9 5 17 2 17 -3 0 -22 -35 -42 -77z"/>
<path d="M6981 5458 c-47 -111 -122 -356 -120 -395 0 -10 12 14 25 52 14 39
29 79 34 90 29 72 92 295 84 295 -3 0 -13 -19 -23 -42z"/>
<path d="M11225 5474 c28 -21 363 -184 379 -184 5 0 23 -7 42 -15 19 -8 49
-22 68 -30 19 -8 41 -15 49 -15 9 0 18 -4 21 -9 3 -5 22 -12 42 -15 42 -8 90
-36 109 -64 29 -40 36 -121 40 -460 6 -408 14 -618 29 -727 3 -16 5 -34 5 -40
1 -5 5 -5 11 1 11 11 15 997 5 1119 -7 80 -35 147 -73 174 -15 10 -65 33 -112
51 -47 18 -98 38 -115 45 -63 26 -223 88 -290 112 -38 13 -79 28 -90 33 -93
38 -156 51 -120 24z"/>
<path d="M7042 5348 c-18 -68 -44 -161 -58 -208 -34 -113 -54 -188 -54 -203 1
-23 100 249 119 328 20 81 37 205 29 205 -2 0 -19 -55 -36 -122z"/>
<path d="M7757 5363 c-58 -113 -202 -502 -195 -524 4 -12 122 268 163 386 17
50 33 95 36 100 9 15 20 65 14 65 -2 0 -11 -12 -18 -27z"/>
<path d="M3320 5288 c-194 -413 -381 -906 -559 -1472 -35 -112 -37 -123 -16
-106 8 7 15 16 15 21 0 8 83 214 110 274 5 11 19 45 31 75 11 30 27 69 35 85
7 17 34 84 59 150 67 172 76 196 91 232 8 17 14 37 14 45 0 8 3 17 6 21 6 6
46 114 85 232 11 33 24 67 28 75 5 9 12 31 16 50 4 19 11 41 15 50 18 37 59
157 110 323 16 50 -1 28 -40 -55z"/>
<path d="M3547 5327 c-28 -34 -269 -462 -317 -562 -23 -49 -69 -151 -102 -225
-33 -74 -70 -157 -83 -185 -21 -46 -213 -568 -249 -678 -20 -60 -20 -70 1
-110 11 -22 18 -27 21 -17 2 8 10 29 18 47 8 17 14 38 14 46 0 9 5 19 10 22 6
3 10 14 10 23 0 9 7 30 15 46 8 15 15 33 15 38 0 6 6 24 14 41 16 36 41 101
119 307 51 134 139 348 187 455 5 11 27 65 49 120 22 55 49 118 60 140 23 48
93 198 128 275 14 30 45 95 69 144 24 49 43 91 41 92 -1 2 -10 -7 -20 -19z"/>
<path d="M3603 5138 c-133 -240 -368 -769 -473 -1068 -34 -96 -75 -213 -91
-260 -45 -124 -55 -154 -88 -265 -53 -178 -54 -184 -36 -211 16 -25 35 -24 35
2 0 8 4 22 9 32 6 9 18 42 27 72 9 30 20 60 24 65 4 6 11 27 14 49 4 21 11 46
16 55 5 9 23 57 40 106 18 50 36 99 40 110 4 11 22 61 40 110 17 50 35 99 40
110 4 11 25 67 46 125 20 58 41 109 46 115 4 5 8 16 8 25 0 8 7 28 15 44 8 15
15 33 15 38 0 6 6 24 14 41 27 63 39 94 82 210 24 66 53 138 64 162 11 24 20
47 20 50 0 4 6 21 14 38 8 18 24 59 37 92 13 33 27 64 31 70 4 5 8 15 8 23 0
7 9 34 21 59 29 63 17 64 -18 1z"/>
<path d="M6327 5130 c80 -76 229 -173 328 -213 35 -14 -1 14 -125 98 -63 43
-145 100 -181 127 -37 26 -71 48 -75 48 -5 -1 19 -27 53 -60z"/>
<path d="M9090 5114 c-52 -25 -113 -52 -135 -60 -22 -8 -89 -43 -150 -78 -204
-117 -351 -194 -440 -231 -89 -37 -119 -46 -267 -80 -78 -17 -106 -30 -45 -21
17 3 62 8 99 11 144 12 244 49 463 170 55 30 116 60 135 66 19 6 58 28 85 49
28 20 64 44 80 52 48 24 259 148 270 159 14 14 7 11 -95 -37z"/>
<path d="M8471 5094 c0 -11 3 -14 6 -6 3 7 2 16 -1 19 -3 4 -6 -2 -5 -13z"/>
<path d="M3610 4664 c-35 -76 -81 -177 -102 -224 -22 -47 -64 -143 -95 -215
-30 -71 -59 -139 -64 -150 -78 -172 -329 -864 -329 -909 0 -12 8 -34 19 -49
l18 -28 32 88 c18 48 40 108 48 133 9 25 22 59 29 77 8 17 14 36 14 42 0 6 4
19 9 29 6 9 19 44 30 77 19 59 30 87 57 152 8 17 14 35 14 41 0 5 7 23 15 38
8 16 15 36 15 44 0 9 4 20 8 25 5 6 37 87 71 180 34 94 68 186 76 205 7 19 28
76 46 125 17 50 38 104 45 122 8 17 14 36 14 42 0 6 4 19 9 29 6 9 24 58 41
107 18 50 37 100 42 112 6 11 8 27 6 34 -2 6 -33 -51 -68 -127z"/>
<path d="M5491 4727 c-2 -40 43 -229 80 -342 41 -123 126 -303 194 -410 134
-211 175 -269 175 -248 0 4 -7 22 -16 38 -42 79 -205 406 -227 455 -72 160
-136 322 -162 410 -22 73 -44 121 -44 97z"/>
<path d="M8563 4595 c-80 -61 -263 -232 -263 -246 0 -17 16 -8 100 56 75 56
250 224 250 240 0 12 -19 1 -87 -50z"/>
<path d="M7625 4599 c-30 -5 -20 -7 44 -8 46 0 82 1 80 3 -9 8 -87 11 -124 5z"/>
<path d="M3650 4527 c0 -5 -16 -57 -131 -432 -22 -71 -73 -231 -114 -355 -81
-247 -118 -368 -195 -629 -51 -173 -51 -175 -33 -200 30 -39 39 -36 53 16 6
26 15 57 20 68 4 11 16 47 25 80 10 33 33 107 51 164 19 58 34 111 34 118 0 7
4 21 9 31 5 9 17 44 26 77 9 33 25 85 35 115 9 30 25 84 35 120 9 36 21 74 25
85 11 30 26 84 39 140 7 28 16 66 21 85 5 19 13 55 19 80 10 48 21 97 45 200
30 130 48 231 42 237 -3 4 -6 4 -6 0z"/>
<path d="M9112 4445 c-23 -30 -45 -61 -48 -70 -3 -8 -11 -15 -16 -15 -7 0 -7
4 0 13 6 7 16 26 21 42 11 29 10 29 -23 -9 -18 -21 -66 -90 -107 -152 -115
-178 -144 -219 -298 -429 -79 -108 -141 -198 -139 -201 3 -2 20 12 38 33 18
21 51 58 74 83 210 228 411 502 550 748 18 31 -13 5 -52 -43z"/>
<path d="M5013 4300 c-51 -33 -97 -69 -102 -79 -8 -15 0 -32 43 -89 30 -40 73
-106 96 -147 23 -42 44 -74 47 -72 10 11 -59 182 -95 235 l-39 57 81 77 c45
42 77 77 71 77 -5 1 -51 -26 -102 -59z"/>
<path d="M6666 4353 c-7 -7 80 -43 103 -43 21 0 11 6 -45 29 -29 11 -55 17
-58 14z"/>
<path d="M6864 4271 c14 -22 246 -121 246 -105 0 7 -157 80 -210 99 -22 8 -38
11 -36 6z"/>
<path d="M7990 4195 c-96 -34 -222 -73 -280 -85 -57 -11 -107 -24 -110 -27
-11 -13 190 8 250 26 106 31 301 119 315 140 3 6 5 11 3 10 -2 0 -82 -29 -178
-64z"/>
<path d="M7245 4153 c-11 -2 -30 -6 -43 -9 -48 -10 -9 -21 100 -29 62 -4 154
-8 204 -8 99 0 249 22 236 35 -8 8 -462 19 -497 11z"/>
<path d="M9288 3955 c-163 -84 -561 -317 -709 -416 -47 -32 -169 -118 -270
-191 -239 -174 -276 -198 -299 -198 -20 0 -119 -47 -405 -192 -202 -103 -338
-146 -552 -174 -65 -9 -129 -18 -143 -20 -150 -23 -235 -11 -246 33 -4 13 -4
26 -1 30 8 7 -10 53 -119 296 -114 253 -160 373 -189 495 -13 51 -26 96 -30
100 -4 4 -5 -36 -1 -88 11 -162 41 -256 163 -515 110 -233 122 -263 116 -303
-6 -40 15 -75 60 -99 34 -18 144 -23 227 -11 25 4 97 14 160 23 132 19 318 65
405 102 66 28 164 79 265 138 36 20 79 45 96 55 17 10 67 28 110 40 123 33
190 74 494 300 86 63 180 131 210 151 76 50 187 121 235 149 110 64 335 208
377 239 14 12 30 21 35 21 12 1 80 59 68 59 -5 0 -31 -10 -57 -24z"/>
<path d="M5456 3353 c-14 -109 -11 -227 8 -264 16 -35 146 -202 216 -279 17
-19 61 -68 98 -109 37 -40 114 -112 172 -159 58 -48 107 -89 110 -92 3 -3 31
-24 63 -48 31 -23 57 -48 57 -55 0 -21 -30 -324 -50 -511 -46 -412 -69 -757
-77 -1132 l-6 -301 33 -7 c18 -3 36 -4 38 -1 3 3 7 31 8 63 1 31 7 122 13 202
25 309 32 407 36 470 2 36 8 133 13 215 6 83 10 157 10 165 1 8 4 78 8 155 8
157 8 521 0 605 -3 30 -5 67 -6 83 0 15 -5 27 -11 27 -20 0 -333 313 -451 450
-81 94 -225 275 -237 298 -7 14 -22 153 -25 239 -2 42 -14 34 -20 -14z"/>
<path d="M5207 3233 c-62 -251 -110 -616 -187 -1423 -52 -544 -58 -596 -67
-586 -3 3 2 78 11 168 39 384 47 469 56 578 13 172 29 353 42 460 6 52 9 104
6 115 -15 73 -140 -725 -178 -1145 l-21 -225 29 -25 c79 -67 86 -71 94 -52 7
19 51 398 69 592 9 110 69 636 143 1260 26 213 36 350 26 350 -3 0 -13 -30
-23 -67z"/>
<path d="M8857 2983 c-58 -59 -155 -166 -215 -238 -60 -71 -119 -139 -131
-149 -15 -14 -51 -23 -129 -33 -136 -17 -200 -28 -209 -37 -4 -3 -12 -21 -19
-39 -7 -17 -20 -54 -31 -80 l-18 -49 -293 2 c-162 0 -393 7 -515 15 -122 8
-225 15 -229 15 -5 0 -8 -4 -8 -9 0 -9 23 -15 110 -29 25 -4 50 -11 57 -15 6
-4 65 -14 130 -22 89 -11 204 -13 470 -10 l351 4 -8 -27 c-16 -56 -32 -86
-148 -289 -230 -403 -453 -831 -546 -1053 -32 -74 -77 -182 -102 -240 -59
-140 -84 -214 -76 -222 12 -11 63 4 69 21 17 47 49 109 98 191 31 50 60 101
64 113 5 12 32 62 60 110 28 49 51 91 51 93 0 2 39 73 87 157 134 237 267 493
323 622 34 78 49 116 63 155 21 58 54 176 61 215 3 17 11 58 18 93 l13 62 94
0 c132 0 107 19 -43 33 -64 6 -116 15 -116 20 0 4 9 26 19 48 11 22 22 53 26
69 6 25 11 29 43 29 72 -1 168 11 246 30 79 20 101 30 79 38 -7 2 39 55 101
116 62 62 136 141 165 177 28 36 55 70 60 76 32 39 92 136 88 140 -3 3 -52
-43 -110 -103z m-873 -1205 c-46 -105 -174 -354 -174 -340 0 8 35 86 78 175
43 89 87 181 98 203 30 66 29 32 -2 -38z"/>
<path d="M9230 3054 c-121 -14 -240 -42 -222 -53 15 -9 189 5 275 23 70 15 96
26 60 26 -11 0 -33 2 -49 4 -16 2 -45 2 -64 0z"/>
<path d="M3811 2852 c-18 -42 -67 -160 -108 -262 -62 -153 -72 -188 -64 -207
17 -37 39 -28 51 20 6 23 15 51 19 62 5 11 17 47 26 80 10 33 21 69 26 80 4
11 15 47 25 80 9 33 20 69 24 80 51 133 52 183 1 67z"/>
<path d="M5408 2895 c0 -17 -2 -124 -3 -240 -2 -163 -6 -221 -19 -260 l-16
-50 4 80 c11 197 -48 -127 -83 -455 -49 -458 -63 -614 -80 -895 l-10 -150 37
-32 c20 -17 38 -31 39 -29 8 8 23 178 33 361 5 116 14 255 20 310 5 55 17 177
25 270 18 193 52 493 62 545 l6 35 8 -50 c12 -81 78 -592 83 -643 3 -26 7 -81
11 -122 3 -41 8 -91 11 -111 3 -20 -2 -116 -11 -215 -10 -110 -15 -252 -13
-368 l3 -190 48 -34 c26 -19 50 -32 53 -29 5 5 4 235 -1 322 -14 218 -1 412
60 880 14 105 27 213 31 240 3 28 14 93 25 147 35 175 19 171 -30 -8 -16 -60
-50 -203 -76 -319 -42 -189 -55 -238 -55 -209 0 5 -4 45 -10 89 -5 44 -12 105
-14 135 -3 30 -10 91 -16 135 -12 84 -19 143 -25 185 -2 14 -20 174 -41 355
-34 300 -51 400 -56 320z"/>
<path d="M4862 2853 c-18 -79 -78 -476 -106 -700 -24 -189 -33 -284 -55 -563
-6 -69 -13 -159 -16 -201 l-6 -77 31 -22 c18 -13 35 -19 40 -14 5 5 10 41 11
79 1 39 7 122 14 185 7 63 11 118 8 122 -2 4 1 43 7 85 5 43 12 112 14 153 11
188 26 382 31 390 4 7 28 343 27 380 -1 8 4 53 10 100 13 108 7 158 -10 83z"/>
<path d="M4631 2844 c-40 -155 -196 -1130 -203 -1267 -2 -42 2 -52 30 -79 17
-18 33 -30 36 -27 2 2 9 49 15 104 6 55 18 154 26 220 8 66 26 226 40 355 13
129 37 344 51 478 25 232 27 299 5 216z"/>
<path d="M10115 2784 c-728 -543 -1248 -1021 -1572 -1444 -136 -178 -127 -183
25 -15 123 136 319 327 497 486 28 24 52 46 55 49 3 3 88 79 190 170 102 91
201 179 220 196 19 17 120 107 224 200 104 93 236 212 294 264 58 52 122 109
141 127 62 55 18 36 -74 -33z"/>
<path d="M5001 2823 c-17 -33 -49 -197 -127 -653 -18 -105 -58 -447 -84 -720
l-20 -205 33 -27 c17 -14 33 -26 34 -24 3 2 48 421 62 571 37 399 52 548 61
610 5 39 19 155 31 260 11 104 23 193 25 197 3 4 3 8 0 8 -3 0 -9 -8 -15 -17z"/>
<path d="M4502 2718 c-52 -252 -130 -720 -158 -945 l-16 -131 27 -36 c15 -20
31 -36 35 -36 11 0 17 40 40 280 11 113 31 295 45 405 14 110 30 264 35 343 5
78 13 160 16 182 13 81 -4 37 -24 -62z"/>
<path d="M4079 2613 c-15 -40 -106 -382 -125 -474 -17 -79 -17 -80 3 -101 l21
-21 11 39 c6 22 11 56 11 77 0 21 4 46 10 56 5 10 14 49 20 87 13 90 37 229
40 229 1 0 7 30 14 68 13 72 12 83 -5 40z"/>
<path d="M10160 2484 c-80 -67 -267 -233 -440 -389 -148 -134 -660 -658 -755
-773 -44 -52 -25 -46 45 16 432 382 797 733 1151 1105 133 141 133 153 -1 41z"/>
<path d="M6140 2545 c0 -5 134 -134 198 -191 68 -59 158 -178 197 -257 30 -64
49 -117 97 -269 9 -30 8 -57 -5 -130 -62 -361 -78 -463 -96 -618 -25 -209 -51
-526 -51 -628 l0 -73 33 3 32 3 7 80 c15 170 29 345 38 470 23 314 46 583 62
710 17 142 19 177 10 189 -5 6 -14 43 -21 81 -23 130 -72 259 -123 325 -47 62
-132 140 -241 222 -107 79 -137 98 -137 83z"/>
<path d="M3733 2428 c-12 -40 -24 -84 -25 -97 -5 -37 19 -36 25 1 3 18 11 57
17 86 18 85 7 91 -17 10z"/>
<path d="M5210 2453 c0 -5 -7 -48 -15 -98 -45 -273 -126 -1102 -124 -1276 0
-59 3 -66 30 -88 17 -13 32 -21 35 -19 4 5 24 247 30 363 1 28 5 104 9 170 8
133 9 166 19 375 3 80 8 165 11 190 8 77 17 390 11 390 -3 0 -6 -3 -6 -7z"/>
<path d="M5813 2308 c-10 -29 -25 -87 -53 -213 -15 -69 -58 -345 -71 -460 -17
-148 -17 -616 0 -780 21 -205 45 -316 72 -337 29 -24 39 -9 29 41 -5 20 -11
73 -15 119 -4 45 -9 101 -11 125 -10 114 -13 681 -4 822 13 207 37 451 56 588
16 116 15 148 -3 95z"/>
<path d="M8508 2323 c-28 -33 -341 -542 -505 -823 -84 -144 -201 -353 -303
-545 -23 -44 -46 -84 -50 -90 -25 -35 -163 -305 -174 -342 -6 -20 -4 -23 18
-23 44 0 57 12 98 94 22 44 67 127 99 184 33 57 59 106 59 108 0 3 26 51 59
107 32 56 74 131 93 167 42 77 71 129 150 268 32 57 58 106 58 109 0 2 17 35
39 71 38 67 144 267 210 397 20 39 38 72 41 75 9 9 131 260 126 260 -2 0 -10
-8 -18 -17z"/>
<path d="M8615 2273 c-31 -37 -64 -79 -73 -93 -9 -14 -39 -55 -67 -92 -66 -88
-120 -167 -174 -253 -99 -157 -144 -243 -375 -710 -218 -440 -286 -581 -286
-596 0 -10 41 -12 64 -3 8 3 150 276 315 607 317 637 414 816 589 1086 40 62
71 115 68 118 -2 2 -30 -26 -61 -64z"/>
<path d="M6120 2313 c0 -5 -9 -42 -21 -83 -44 -167 -119 -578 -144 -790 -32
-272 -55 -627 -55 -847 0 -150 1 -163 19 -173 41 -21 47 -14 60 75 6 47 9 90
6 95 -3 5 -1 49 4 97 6 48 15 160 21 248 6 88 15 210 20 270 6 61 15 166 20
235 25 289 31 353 49 515 22 187 34 365 26 365 -3 0 -5 -3 -5 -7z"/>
<path d="M7987 2227 c-330 -405 -546 -743 -717 -1122 -12 -27 -66 -144 -120
-260 -134 -290 -176 -395 -161 -405 27 -16 58 2 76 43 24 56 97 210 180 382
37 77 94 196 127 263 62 130 91 165 37 46 -67 -147 -249 -661 -249 -701 0 -10
9 -13 27 -11 22 2 30 12 47 60 12 31 25 60 29 64 4 4 7 14 7 21 0 8 8 33 18
56 10 23 27 62 37 87 10 25 23 59 30 75 7 17 18 46 25 65 13 35 108 265 137
330 16 37 31 70 83 185 57 123 169 344 260 510 54 97 120 225 120 231 0 11
-26 -22 -84 -108 -32 -49 -61 -88 -63 -88 -6 0 18 43 61 105 104 150 160 255
93 172z m-169 -307 c-7 -10 -14 -17 -17 -15 -4 4 18 35 25 35 2 0 -1 -9 -8
-20z"/>
<path d="M7544 2139 c-115 -180 -133 -208 -167 -261 -19 -29 -41 -66 -51 -81
-10 -16 -20 -26 -24 -23 -3 4 0 12 6 18 7 7 12 18 12 26 0 8 6 28 14 45 14 33
96 283 96 293 0 21 -45 -58 -93 -161 -30 -66 -138 -289 -240 -495 -102 -206
-202 -419 -223 -472 -22 -54 -43 -98 -47 -98 -5 0 -6 4 -3 9 3 4 10 73 16 152
6 79 15 207 21 284 15 219 18 336 8 362 -5 13 -11 38 -14 54 -3 17 -31 103
-61 192 -77 225 -78 227 -86 227 -13 0 -13 0 26 -170 8 -36 31 -130 51 -209
38 -153 39 -180 19 -429 -7 -91 -22 -310 -34 -469 -13 -197 -17 -218 -56 -320
-39 -102 -61 -131 -51 -67 32 207 85 1052 69 1093 -5 11 -9 6 -13 -19 -4 -19
-7 23 -8 95 -1 79 -5 124 -10 115 -13 -22 -42 -294 -72 -665 -15 -183 -28
-484 -29 -638 l0 -138 37 3 c33 3 41 8 61 48 13 25 21 34 17 20 -12 -48 -10
-53 18 -57 36 -5 54 9 63 50 3 18 13 41 20 52 8 11 14 25 14 32 0 7 15 45 33
85 19 40 47 102 63 138 27 62 380 765 441 880 31 59 95 176 148 275 18 33 54
101 81 150 61 114 34 93 -58 -44 -39 -58 -75 -107 -82 -109 -7 -2 -7 -1 -1 5
15 12 167 314 161 320 -3 3 -35 -41 -72 -98z"/>
<path d="M6430 1946 c0 -2 -12 -73 -26 -157 -34 -209 -80 -566 -99 -784 -36
-405 -41 -270 -10 300 7 138 13 261 14 275 0 14 3 48 6 75 3 28 1 56 -4 63
-12 19 -63 -329 -97 -663 -16 -148 -27 -580 -17 -641 5 -30 7 -32 65 -38 33
-4 62 -5 65 -2 2 2 9 66 14 142 5 76 11 145 14 154 5 17 27 294 30 380 1 30 8
132 15 225 7 94 14 188 15 210 1 22 5 83 9 135 17 234 21 330 14 330 -5 0 -8
-2 -8 -4z m-153 -1303 c-3 -10 -5 -4 -5 12 0 17 2 24 5 18 2 -7 2 -21 0 -30z"/>
<path d="M7356 1596 c-9 -14 -16 -27 -16 -30 0 -2 -20 -46 -44 -97 -167 -356
-356 -843 -391 -1007 -6 -29 -4 -32 18 -32 22 0 29 11 67 108 22 59 47 123 55
142 7 19 26 69 41 110 14 41 32 89 39 105 14 34 99 267 122 335 8 25 19 54 23
65 5 11 23 63 40 115 17 52 35 104 40 115 15 37 30 88 26 92 -2 2 -11 -8 -20
-21z"/>
<path d="M9350 1259 c-376 -155 -1020 -446 -1020 -463 0 -7 57 11 185 59 66
25 201 75 300 112 116 42 269 110 430 190 232 117 264 135 265 156 0 11 -4 9
-160 -54z"/>
</g>
</svg>
